<?xml version="1.0" encoding="UTF-8" standalone="no"?>
<!-- Created with Inkscape (http://www.inkscape.org/) -->

<svg
   xmlns:dc="http://purl.org/dc/elements/1.1/"
   xmlns:cc="http://creativecommons.org/ns#"
   xmlns:rdf="http://www.w3.org/1999/02/22-rdf-syntax-ns#"
   xmlns:svg="http://www.w3.org/2000/svg"
   xmlns="http://www.w3.org/2000/svg"
   xmlns:sodipodi="http://sodipodi.sourceforge.net/DTD/sodipodi-0.dtd"
   xmlns:inkscape="http://www.inkscape.org/namespaces/inkscape"
   version="1.1"
   id="svg2"
   xml:space="preserve"
   width="7.3000002in"
   height="8.1999998in"
   viewBox="0 0 700.80002 787.19998"
   sodipodi:docname="coordinates.svg"
   inkscape:version="0.92.5 (2060ec1f9f, 2020-04-08)"><metadata
     id="metadata8"><rdf:RDF><cc:Work
         rdf:about=""><dc:format>image/svg+xml</dc:format><dc:type
           rdf:resource="http://purl.org/dc/dcmitype/StillImage" /><dc:title></dc:title></cc:Work></rdf:RDF></metadata><defs
     id="defs6"><clipPath
       clipPathUnits="userSpaceOnUse"
       id="clipPath32"><path
         d="M 0,0 H 3504.1665 V 2479.8718 H 0 Z"
         id="path30"
         inkscape:connector-curvature="0"
         style="clip-rule:evenodd" /></clipPath><clipPath
       clipPathUnits="userSpaceOnUse"
       id="clipPath202"><path
         d="m 1949.7542,1000.3401 h 21.1835 v 9.9487 h -21.1835 z"
         id="path200"
         inkscape:connector-curvature="0"
         style="clip-rule:evenodd" /></clipPath><clipPath
       clipPathUnits="userSpaceOnUse"
       id="clipPath216"><path
         d="M 0,0 H 3504.1665 V 2479.8718 H 0 Z"
         id="path214"
         inkscape:connector-curvature="0"
         style="clip-rule:evenodd" /></clipPath></defs><sodipodi:namedview
     pagecolor="#ffffff"
     bordercolor="#666666"
     borderopacity="1"
     objecttolerance="10"
     gridtolerance="10"
     guidetolerance="10"
     inkscape:pageopacity="0"
     inkscape:pageshadow="2"
     inkscape:window-width="1920"
     inkscape:window-height="1021"
     id="namedview4"
     showgrid="false"
     inkscape:zoom="0.80215459"
     inkscape:cx="672.76008"
     inkscape:cy="392.61452"
     inkscape:window-x="0"
     inkscape:window-y="28"
     inkscape:window-maximized="1"
     inkscape:current-layer="g10"
     units="in"
     width="13in" /><g
     id="g10"
     inkscape:groupmode="layer"
     inkscape:label="coordinates"
     transform="matrix(0.31999998,0,0,0.31999998,0,-8.9599713)"><g
       id="g26"
       transform="matrix(2.731997,0,0,2.731997,-4075.8149,-2416.7287)"><g
         id="g28"
         clip-path="url(#clipPath32)"><g
           id="g34"
           transform="scale(2.9950142)"><path
             d="m 554,560 c 0,1.22815 -0.0433,2.45337 -0.13,3.67566 -0.0867,1.22223 -0.21625,2.43567 -0.3888,3.6402 -0.17248,1.20459 -0.38708,2.39453 -0.6438,3.56982 -0.25671,1.17529 -0.55426,2.33026 -0.8927,3.46491 -0.33838,1.1347 -0.716,2.24359 -1.13287,3.32678 -0.41681,1.08313 -0.87085,2.13525 -1.36218,3.15643 -0.49128,1.02124 -1.01746,2.00653 -1.57843,2.95593 -0.56098,0.94941 -1.15406,1.85828 -1.77936,2.72675 -0.62525,0.86847 -1.27967,1.69232 -1.96326,2.47144 -0.68359,0.77911 -1.39307,1.50988 -2.12836,2.19219 -0.73523,0.68238 -1.49279,1.31305 -2.27264,1.89197 -0.77985,0.57898 -1.57825,1.10346 -2.3952,1.57343 -0.81696,0.47003 -1.64856,0.8833 -2.49475,1.2398 -0.84619,0.35651 -1.70295,0.65461 -2.57025,0.89417 -0.86725,0.23962 -1.74091,0.41962 -2.62092,0.53998 -0.88,0.12036 -1.76214,0.18054 -2.64648,0.18054 -0.88422,0 -1.76636,-0.0602 -2.64642,-0.18054 -0.88007,-0.12036 -1.75379,-0.30036 -2.6211,-0.53998 -0.86725,-0.23956 -1.724,-0.53766 -2.57019,-0.89417 -0.84625,-0.3565 -1.67785,-0.76977 -2.49481,-1.2398 -0.81696,-0.46997 -1.61536,-0.99445 -2.3952,-1.57343 -0.77991,-0.57892 -1.53748,-1.20959 -2.27277,-1.89197 -0.73526,-0.68231 -1.44464,-1.41308 -2.12817,-2.19219 -0.68357,-0.77912 -1.33798,-1.60297 -1.96329,-2.47144 -0.62527,-0.86847 -1.21841,-1.77734 -1.77942,-2.72675 -0.56094,-0.9494 -1.0871,-1.93469 -1.5784,-2.95593 -0.49124,-1.02118 -0.94531,-2.0733 -1.36215,-3.15643 -0.41684,-1.08319 -0.79449,-2.19208 -1.1329,-3.32678 -0.33838,-1.13465 -0.63593,-2.28962 -0.89261,-3.46491 -0.25669,-1.17529 -0.47132,-2.36523 -0.64383,-3.56982 -0.17249,-1.20453 -0.30207,-2.41797 -0.38874,-3.6402 C 500.04333,562.45337 500,561.22815 500,560 c 0,-1.22821 0.0433,-2.45343 0.13,-3.67566 0.0867,-1.22229 0.21625,-2.43573 0.38874,-3.64026 0.17251,-1.20453 0.38714,-2.39447 0.64383,-3.56976 0.25668,-1.17529 0.55423,-2.33032 0.89261,-3.46503 0.33841,-1.13458 0.71606,-2.24353 1.1329,-3.32672 0.41684,-1.08319 0.87091,-2.13538 1.36215,-3.15655 0.4913,-1.02118 1.01746,-2.00641 1.57843,-2.95581 0.56101,-0.94941 1.15412,-1.85828 1.77939,-2.72675 0.62531,-0.86841 1.27972,-1.6922 1.96329,-2.47138 0.68353,-0.77911 1.39291,-1.50982 2.12817,-2.19219 0.73529,-0.68232 1.49286,-1.31299 2.27277,-1.89197 0.77984,-0.57892 1.57824,-1.1034 2.3952,-1.57343 0.81696,-0.46997 1.64856,-0.88324 2.49481,-1.23974 0.84619,-0.35651 1.70294,-0.65461 2.57019,-0.89423 0.86731,-0.23956 1.74103,-0.41949 2.6211,-0.53992 0.88006,-0.12042 1.7622,-0.1806 2.64642,-0.1806 0.88434,0 1.76648,0.0602 2.64648,0.1806 0.88001,0.12043 1.75367,0.30036 2.62092,0.53992 0.8673,0.23962 1.72406,0.53766 2.57025,0.89417 0.84619,0.3565 1.67779,0.76971 2.49475,1.23974 0.81695,0.47003 1.61541,0.99451 2.39526,1.57349 0.77985,0.57892 1.53735,1.20959 2.27265,1.8919 0.73529,0.68238 1.44476,1.41315 2.12829,2.19226 0.68359,0.77918 1.33801,1.60297 1.96326,2.47138 0.6253,0.86847 1.21844,1.77734 1.77942,2.72675 0.56097,0.9494 1.08709,1.93463 1.57837,2.95581 0.49133,1.02117 0.94543,2.07336 1.36224,3.15655 0.41681,1.08319 0.79443,2.19214 1.13281,3.32672 0.33844,1.13471 0.63599,2.28974 0.8927,3.46503 0.25672,1.17529 0.47132,2.36523 0.6438,3.56976 0.17255,1.20453 0.30213,2.41797 0.3888,3.64026 0.0867,1.22223 0.13,2.44745 0.13,3.67566 z"
             style="fill:none;stroke:#808080;stroke-width:1;stroke-linecap:butt;stroke-linejoin:miter;stroke-miterlimit:10;stroke-dasharray:none;stroke-opacity:0.6"
             id="path36"
             inkscape:connector-curvature="0" /><path
             d="m 662,470 c 0,1.1463 -0.0401,2.28983 -0.12036,3.4306 -0.0803,1.14078 -0.20032,2.27332 -0.36005,3.39756 -0.15973,1.12426 -0.3584,2.23486 -0.59613,3.33178 -0.23761,1.09696 -0.51312,2.17493 -0.82648,3.23395 -0.31329,1.05905 -0.66296,2.09403 -1.04888,3.10498 -0.38605,1.01093 -0.80646,1.99292 -1.26136,2.94602 -0.45489,0.95315 -0.94201,1.87277 -1.46142,2.75888 -0.51947,0.8861 -1.06867,1.73443 -1.64765,2.54495 -0.57892,0.81058 -1.18487,1.57944 -1.81781,2.30661 -0.63287,0.72723 -1.28973,1.40924 -1.97058,2.04605 -0.68072,0.63684 -1.3822,1.22543 -2.10431,1.76581 -0.7221,0.54037 -1.46142,1.02987 -2.21789,1.4685 -0.75641,0.43869 -1.52643,0.82441 -2.30994,1.15714 -0.78351,0.33279 -1.57684,0.61099 -2.37988,0.83459 -0.80304,0.22367 -1.61194,0.3917 -2.42676,0.50406 C 638.63562,504.94382 637.81879,505 637,505 c -0.81879,0 -1.63556,-0.0562 -2.45044,-0.16855 -0.81488,-0.11233 -1.6239,-0.28036 -2.42694,-0.50403 -0.80304,-0.2236 -1.59631,-0.5018 -2.37982,-0.83456 -0.78351,-0.33276 -1.55353,-0.71848 -2.31,-1.15717 -0.75641,-0.43863 -1.49573,-0.92813 -2.21783,-1.4685 -0.72205,-0.54038 -1.42347,-1.12897 -2.10431,-1.76581 -0.68079,-0.63681 -1.33765,-1.31882 -1.97052,-2.04605 -0.63294,-0.72717 -1.23889,-1.49603 -1.81787,-2.30661 -0.57892,-0.81052 -1.12812,-1.65885 -1.64759,-2.54495 -0.51941,-0.88611 -1.00659,-1.80573 -1.46148,-2.75888 -0.45484,-0.9531 -0.87525,-1.93509 -1.2613,-2.94602 -0.38592,-1.01095 -0.73553,-2.04596 -1.04895,-3.10501 -0.31329,-1.05905 -0.5888,-2.13702 -0.82653,-3.23395 -0.23767,-1.09689 -0.43641,-2.20749 -0.59613,-3.33178 -0.15973,-1.12424 -0.27967,-2.25675 -0.35993,-3.39753 C 612.0401,472.28983 612,471.1463 612,470 c 0,-1.1463 0.0401,-2.28983 0.12036,-3.4306 0.0803,-1.14078 0.2002,-2.27329 0.35993,-3.39759 0.15972,-1.12423 0.35846,-2.23483 0.59613,-3.33178 0.23773,-1.09693 0.51324,-2.17493 0.82653,-3.23398 0.31342,-1.05902 0.66309,-2.09403 1.04902,-3.10498 0.38598,-1.01093 0.80639,-1.99295 1.26123,-2.94608 0.45489,-0.95309 0.94207,-1.87271 1.46148,-2.75882 0.51947,-0.88607 1.06867,-1.7344 1.64759,-2.54495 0.57898,-0.81055 1.18493,-1.57944 1.81787,-2.30664 0.63287,-0.7272 1.28973,-1.40921 1.97052,-2.04608 0.68084,-0.63681 1.38226,-1.2254 2.10437,-1.76578 0.7221,-0.54034 1.46136,-1.02988 2.21777,-1.46857 0.75647,-0.43863 1.52649,-0.82434 2.31,-1.1571 0.78351,-0.33273 1.57678,-0.6109 2.37982,-0.83453 0.80304,-0.22361 1.61206,-0.39161 2.42694,-0.50394 0.81488,-0.11234 1.63165,-0.16855 2.45044,-0.16858 0.81879,3e-5 1.63562,0.0562 2.4505,0.16858 0.81482,0.11233 1.62372,0.28033 2.42676,0.50394 0.80304,0.22363 1.59637,0.50183 2.37994,0.83456 0.78351,0.33273 1.55347,0.71844 2.30988,1.15707 0.75647,0.43869 1.49579,0.92823 2.21789,1.4686 0.72211,0.54035 1.42359,1.12894 2.10431,1.76575 0.68085,0.63687 1.33771,1.31888 1.97064,2.04608 0.63288,0.7272 1.23883,1.49609 1.81775,2.30664 0.57898,0.81055 1.12818,1.65888 1.64765,2.54495 0.51941,0.88611 1.00653,1.80573 1.46136,2.75882 0.4549,0.95313 0.87537,1.93515 1.26135,2.94611 0.38599,1.01095 0.73566,2.04593 1.04895,3.10495 0.31336,1.05905 0.58887,2.13705 0.82648,3.23395 0.23773,1.09695 0.4364,2.20758 0.59613,3.33181 0.15973,1.1243 0.27979,2.25681 0.36005,3.39759 C 661.9599,467.71017 662,468.8537 662,470 Z"
             style="fill:none;stroke:#808080;stroke-width:1;stroke-linecap:butt;stroke-linejoin:miter;stroke-miterlimit:10;stroke-dasharray:none;stroke-opacity:0.6"
             id="path38"
             inkscape:connector-curvature="0" /><path
             d="m 763,370 c 6e-5,1.1463 -0.0401,2.28983 -0.12036,3.4306 -0.0803,1.14078 -0.20032,2.27329 -0.36005,3.39756 -0.15973,1.12426 -0.3584,2.23486 -0.59613,3.33178 -0.23773,1.09693 -0.51324,2.1749 -0.8266,3.23392 -0.31329,1.05905 -0.66296,2.09402 -1.04889,3.10495 -0.38598,1.01096 -0.80645,1.99298 -1.26135,2.94608 -0.45483,0.95312 -0.94195,1.87274 -1.46136,2.75888 -0.51941,0.88607 -1.06861,1.7344 -1.64765,2.54495 -0.57892,0.81058 -1.18487,1.57944 -1.81781,2.30664 -0.63287,0.7272 -1.28979,1.40921 -1.97064,2.04602 -0.68072,0.63687 -1.3822,1.22546 -2.10431,1.76584 -0.72211,0.54037 -1.46136,1.02987 -2.21783,1.4685 -0.75647,0.43866 -1.52643,0.82438 -2.30994,1.15714 -0.78351,0.33276 -1.57684,0.61096 -2.37988,0.83459 -0.80304,0.22364 -1.61194,0.39164 -2.42676,0.504 C 739.63562,404.94382 738.81879,405 738,405 c -0.81879,0 -1.63556,-0.0562 -2.45044,-0.16855 -0.81488,-0.11236 -1.62384,-0.28036 -2.42694,-0.504 -0.80298,-0.22363 -1.59625,-0.50183 -2.37982,-0.83459 -0.78351,-0.33276 -1.55353,-0.71848 -2.31,-1.15714 -0.75641,-0.43863 -1.49567,-0.92813 -2.21777,-1.4685 -0.72211,-0.54038 -1.42353,-1.12897 -2.10437,-1.76584 -0.68079,-0.63681 -1.33765,-1.31882 -1.97052,-2.04602 -0.63294,-0.7272 -1.23889,-1.49606 -1.81787,-2.30664 -0.57892,-0.81055 -1.12812,-1.65888 -1.64759,-2.54502 -0.51947,-0.88607 -1.00665,-1.80569 -1.46155,-2.75881 -0.45483,-0.9531 -0.87524,-1.93512 -1.26129,-2.94608 -0.38592,-1.01093 -0.73559,-2.0459 -1.04895,-3.10495 -0.31329,-1.05902 -0.5888,-2.13699 -0.82641,-3.23392 -0.23767,-1.09692 -0.4364,-2.20752 -0.59613,-3.33178 -0.15973,-1.12427 -0.27967,-2.25678 -0.35993,-3.39756 C 713.04016,372.28983 713,371.1463 713,370 c 0,-1.14627 0.0401,-2.28983 0.12036,-3.4306 0.0803,-1.14078 0.2002,-2.27332 0.35993,-3.39762 0.15972,-1.12423 0.35846,-2.23483 0.59613,-3.33175 0.23767,-1.09696 0.51318,-2.17496 0.82647,-3.23401 0.31336,-1.05902 0.66303,-2.094 1.04901,-3.10495 0.38599,-1.01096 0.8064,-1.99298 1.26123,-2.94611 0.4549,-0.95309 0.94208,-1.87268 1.46155,-2.75876 0.51947,-0.88607 1.06867,-1.7344 1.64759,-2.54498 0.57898,-0.81055 1.18493,-1.57941 1.81787,-2.30661 0.63287,-0.7272 1.28973,-1.40924 1.97052,-2.04611 0.68084,-0.63684 1.38232,-1.22543 2.10443,-1.76578 0.72204,-0.54034 1.4613,-1.02985 2.21771,-1.46854 0.75647,-0.43862 1.52649,-0.82434 2.31,-1.15707 0.78357,-0.33273 1.57684,-0.61096 2.37982,-0.83462 0.8031,-0.22361 1.61206,-0.39161 2.42694,-0.50394 C 736.36444,335.05618 737.18121,335 738,335 c 0.81879,0 1.63562,0.0562 2.45044,0.16855 0.81482,0.11233 1.62372,0.28033 2.42676,0.50394 0.80304,0.22366 1.59631,0.50189 2.37982,0.83462 0.78351,0.33273 1.55353,0.71845 2.31,1.15707 0.75647,0.43869 1.49572,0.9282 2.21783,1.46854 0.72211,0.54035 1.42359,1.12894 2.10431,1.76578 0.68085,0.63687 1.33777,1.31891 1.9707,2.04611 0.63288,0.7272 1.23883,1.49606 1.81775,2.30661 0.57904,0.81058 1.12824,1.65891 1.64765,2.54498 0.51947,0.88608 1.00659,1.80567 1.46142,2.75876 0.4549,0.95313 0.87537,1.93518 1.26129,2.94614 0.38593,1.01092 0.7356,2.0459 1.04889,3.10492 0.31336,1.05905 0.58887,2.13702 0.8266,3.23398 0.23773,1.09695 0.4364,2.20755 0.59613,3.33178 0.15973,1.1243 0.27979,2.25687 0.36005,3.39765 0.0803,1.14078 0.12042,2.2843 0.12036,3.43057 z"
             style="fill:none;stroke:#808080;stroke-width:1;stroke-linecap:butt;stroke-linejoin:miter;stroke-miterlimit:10;stroke-dasharray:none;stroke-opacity:0.6"
             id="path40"
             inkscape:connector-curvature="0" /></g><g
           id="g42"
           transform="matrix(2.9950142,0,0,2.9950142,1.4975071,1.4975071)"><path
             d="m 530,470 c -6e-5,0.3978 -0.0762,0.78049 -0.22839,1.14804 -0.15229,0.36749 -0.36902,0.6919 -0.65033,0.97324 -0.28131,0.28128 -0.60578,0.49804 -0.97327,0.6503 -0.36755,0.15225 -0.75024,0.22839 -1.14801,0.22842 -0.39789,-3e-5 -0.78058,-0.0762 -1.14813,-0.22842 -0.36749,-0.15226 -0.6919,-0.36902 -0.97321,-0.6503 -0.28137,-0.28134 -0.49817,-0.60575 -0.65039,-0.97327 C 524.07605,470.78049 523.99994,470.3978 524,470 c -6e-5,-0.39786 0.0761,-0.78055 0.22827,-1.1481 0.15222,-0.36756 0.36902,-0.69196 0.65039,-0.97324 0.28131,-0.28131 0.60572,-0.49808 0.97321,-0.65033 C 526.21942,467.07611 526.60211,467 527,467 c 0.39777,0 0.78046,0.0761 1.14801,0.22833 0.36749,0.15225 0.69196,0.36902 0.97327,0.65033 0.28131,0.28128 0.49804,0.60568 0.65033,0.97324 0.15222,0.36755 0.22833,0.75024 0.22839,1.1481 z"
             style="fill:#000000;fill-opacity:1;fill-rule:nonzero;stroke:none"
             id="path44"
             inkscape:connector-curvature="0" /></g><g
           id="g46"
           transform="scale(2.9950142)"><path
             d="M 527,470 647,350"
             style="fill:none;stroke:#000000;stroke-width:1;stroke-linecap:butt;stroke-linejoin:miter;stroke-miterlimit:10;stroke-dasharray:none;stroke-opacity:1"
             id="path48"
             inkscape:connector-curvature="0" /><text
             transform="translate(569.01563,442)"
             style="font-style:italic;font-variant:normal;font-size:11px;font-family:Georgia;-inkscape-font-specification:Georgia-Italic;writing-mode:lr-tb;fill:#000000;fill-opacity:1;fill-rule:nonzero;stroke:none"
             id="text52"><tspan
               x="0"
               y="0"
               id="tspan50">k</tspan></text>
<text
             transform="translate(574.8125,445)"
             style="font-style:italic;font-variant:normal;font-size:9.15999985px;font-family:Georgia;-inkscape-font-specification:Georgia-Italic;writing-mode:lr-tb;fill:#000000;fill-opacity:1;fill-rule:nonzero;stroke:none"
             id="text56"><tspan
               x="0"
               y="0"
               id="tspan54">4</tspan></text>
<path
             d="M 527,560 V 470"
             style="fill:none;stroke:#000000;stroke-width:1;stroke-linecap:butt;stroke-linejoin:miter;stroke-miterlimit:10;stroke-dasharray:none;stroke-opacity:1"
             id="path58"
             inkscape:connector-curvature="0" /><text
             transform="translate(532.1875,508)"
             style="font-style:italic;font-variant:normal;font-size:11px;font-family:Georgia;-inkscape-font-specification:Georgia-Italic;writing-mode:lr-tb;fill:#000000;fill-opacity:1;fill-rule:nonzero;stroke:none"
             id="text62"><tspan
               x="0"
               y="0"
               id="tspan60">k</tspan></text>
<text
             transform="translate(537.98438,511)"
             style="font-style:italic;font-variant:normal;font-size:9.15999985px;font-family:Georgia;-inkscape-font-specification:Georgia-Italic;writing-mode:lr-tb;fill:#000000;fill-opacity:1;fill-rule:nonzero;stroke:none"
             id="text66"><tspan
               x="0"
               y="0"
               id="tspan64">5</tspan></text>
</g><g
           id="g68"
           transform="matrix(2.9950142,0,0,2.9950142,1.4975071,1.4975071)"><path
             d="m 650,350 c -6e-5,0.3978 -0.0762,0.78046 -0.22845,1.14801 -0.15223,0.36755 -0.36896,0.69199 -0.65027,0.9733 -0.28131,0.28128 -0.60578,0.49804 -0.97327,0.6503 -0.36749,0.15225 -0.75018,0.22836 -1.14801,0.22839 -0.39789,-3e-5 -0.78064,-0.0761 -1.14813,-0.22839 -0.36762,-0.15226 -0.69202,-0.36902 -0.97327,-0.6503 -0.28131,-0.28131 -0.49811,-0.60575 -0.65033,-0.9733 C 644.07605,350.78046 643.99994,350.3978 644,350 c -6e-5,-0.39786 0.0761,-0.78055 0.22827,-1.1481 0.15222,-0.36756 0.36902,-0.69199 0.65033,-0.97327 0.28125,-0.28131 0.60565,-0.49808 0.97327,-0.6503 C 646.21936,347.07611 646.60211,347 647,347 c 0.39783,0 0.78052,0.0761 1.14801,0.22833 0.36749,0.15222 0.69196,0.36899 0.97327,0.6503 0.28131,0.28128 0.49804,0.60571 0.65027,0.97327 0.15228,0.36755 0.22839,0.75024 0.22845,1.1481 z"
             style="fill:#000000;fill-opacity:1;fill-rule:nonzero;stroke:none"
             id="path70"
             inkscape:connector-curvature="0" /></g><g
           id="g72"
           transform="scale(2.9950142)"><path
             d="M 528,350 H 647"
             style="fill:none;stroke:#000000;stroke-width:1;stroke-linecap:butt;stroke-linejoin:miter;stroke-miterlimit:10;stroke-dasharray:none;stroke-opacity:1"
             id="path74"
             inkscape:connector-curvature="0" /><text
             transform="translate(595.07813,344)"
             style="font-style:italic;font-variant:normal;font-size:11px;font-family:Georgia;-inkscape-font-specification:Georgia-Italic;writing-mode:lr-tb;fill:#000000;fill-opacity:1;fill-rule:nonzero;stroke:none"
             id="text78"><tspan
               x="0"
               y="0"
               id="tspan76">k</tspan></text>
<text
             transform="translate(600.875,347)"
             style="font-style:italic;font-variant:normal;font-size:9.15999985px;font-family:Georgia;-inkscape-font-specification:Georgia-Italic;writing-mode:lr-tb;fill:#000000;fill-opacity:1;fill-rule:nonzero;stroke:none"
             id="text82"><tspan
               x="0"
               y="0"
               id="tspan80">3</tspan></text>
</g><g
           id="g84"
           transform="matrix(2.9950142,0,0,2.9950142,1.4975071,1.4975071)"><path
             d="m 531,350 c -6e-5,0.3978 -0.0762,0.78046 -0.22845,1.14801 -0.15223,0.36755 -0.36896,0.69199 -0.65027,0.9733 -0.28131,0.28128 -0.60578,0.49804 -0.97327,0.6503 -0.36755,0.15225 -0.75024,0.22836 -1.14801,0.22839 -0.39789,-3e-5 -0.78058,-0.0761 -1.14813,-0.22839 -0.36749,-0.15226 -0.6919,-0.36902 -0.97321,-0.6503 -0.28131,-0.28131 -0.49811,-0.60575 -0.65033,-0.9733 C 525.07605,350.78046 524.99994,350.3978 525,350 c -6e-5,-0.39786 0.0761,-0.78055 0.22833,-1.1481 0.15222,-0.36756 0.36902,-0.69199 0.65033,-0.97327 0.28131,-0.28131 0.60572,-0.49808 0.97321,-0.6503 C 527.21942,347.07611 527.60211,347 528,347 c 0.39777,0 0.78046,0.0761 1.14801,0.22833 0.36749,0.15222 0.69196,0.36899 0.97327,0.6503 0.28131,0.28128 0.49804,0.60571 0.65027,0.97327 0.15228,0.36755 0.22839,0.75024 0.22845,1.1481 z"
             style="fill:#000000;fill-opacity:1;fill-rule:nonzero;stroke:none"
             id="path86"
             inkscape:connector-curvature="0" /></g><g
           id="g88"
           transform="scale(2.9950142)"><path
             d="m 527,402.5 v -2 h 2 v 2 m -2,-4 v -2 h 2 v 2 m -2,-4 v -2 h 2 v 2 m -2,-4 v -2 h 2 v 2 m -2,-4 v -2 h 2 v 2 m -2,-4 v -2 h 2 v 2 m -2,-4 v -2 h 2 v 2 m -2,-4 v -2 h 2 v 2 m -2,-4 v -2 h 2 v 2 m -2,-4 v -2 h 2 v 2 m -2,-4 v -2 h 2 v 2 m -2,-4 v -2 h 2 v 2 m -2,-4 v -2 h 2 v 2 m -2,-4 V 350 h 2 v 0.5"
             style="fill:#000000;fill-opacity:1;fill-rule:nonzero;stroke:none"
             id="path90"
             inkscape:connector-curvature="0" /><text
             transform="translate(516.64063,380)"
             style="font-style:italic;font-variant:normal;font-size:11px;font-family:Georgia;-inkscape-font-specification:Georgia-Italic;writing-mode:lr-tb;fill:#000000;fill-opacity:1;fill-rule:nonzero;stroke:none"
             id="text94"><tspan
               x="0"
               y="0"
               id="tspan92">k</tspan></text>
<text
             transform="translate(522.4375,383)"
             style="font-style:italic;font-variant:normal;font-size:9.15999985px;font-family:Georgia;-inkscape-font-specification:Georgia-Italic;writing-mode:lr-tb;fill:#000000;fill-opacity:1;fill-rule:nonzero;stroke:none"
             id="text98"><tspan
               x="0"
               y="0"
               id="tspan96">1</tspan></text>
</g><g
           id="g100"
           transform="matrix(2.9950142,0,0,2.9950142,1.4975071,1.4975071)"><path
             d="m 690,370 c -6e-5,0.39783 -0.0762,0.78052 -0.22845,1.14804 -0.15223,0.36752 -0.36896,0.69196 -0.65027,0.97327 -0.28131,0.28128 -0.60578,0.49804 -0.97327,0.6503 -0.36755,0.15225 -0.75024,0.22836 -1.14801,0.22839 -0.39789,-3e-5 -0.78058,-0.0761 -1.14813,-0.22839 -0.36756,-0.15226 -0.69196,-0.36902 -0.97327,-0.6503 -0.28131,-0.28131 -0.49805,-0.60575 -0.65033,-0.9733 C 684.07605,370.78049 683.99994,370.39783 684,370 c -6e-5,-0.39786 0.0761,-0.78055 0.22827,-1.14807 0.15228,-0.36755 0.36902,-0.69199 0.65033,-0.97327 0.28131,-0.28131 0.60571,-0.49808 0.97327,-0.6503 C 686.21942,367.07611 686.60211,367 687,367 c 0.39777,0 0.78046,0.0761 1.14801,0.22836 0.36749,0.15222 0.69196,0.36899 0.97327,0.6503 0.28131,0.28128 0.49804,0.60572 0.65027,0.97327 0.15222,0.36752 0.22839,0.75021 0.22845,1.14807 z"
             style="fill:#000000;fill-opacity:1;fill-rule:nonzero;stroke:none"
             id="path102"
             inkscape:connector-curvature="0" /><path
             d="M 528,402.5 517.5,413"
             style="fill:none;stroke:#ff0000;stroke-width:1;stroke-linecap:butt;stroke-linejoin:miter;stroke-miterlimit:10;stroke-dasharray:none;stroke-opacity:1"
             id="path104"
             inkscape:connector-curvature="0" /><path
             d="m 513.78998,416.70999 3.30005,-6.6 L 517.5,413 l 2.89001,0.41 z"
             style="fill:#ff0000;fill-opacity:1;fill-rule:nonzero;stroke:none"
             id="path106"
             inkscape:connector-curvature="0" /><path
             d="m 513.78998,416.70999 3.30005,-6.6 L 517.5,413 l 2.89001,0.41 z"
             style="fill:none;stroke:#ff0000;stroke-width:1;stroke-linecap:butt;stroke-linejoin:miter;stroke-miterlimit:10;stroke-dasharray:none;stroke-opacity:1"
             id="path108"
             inkscape:connector-curvature="0" /></g><g
           id="g110"
           transform="scale(2.9950142)"><text
             transform="translate(510.23438,406)"
             style="font-variant:normal;font-weight:normal;font-size:15px;font-family:Georgia;-inkscape-font-specification:Georgia;writing-mode:lr-tb;fill:#000000;fill-opacity:1;fill-rule:nonzero;stroke:none"
             id="text114"><tspan
               x="0"
               y="0"
               id="tspan112">R</tspan></text>
</g><g
           id="g116"
           transform="matrix(2.9950142,0,0,2.9950142,1.4975071,1.4975071)"><path
             d="m 528,402.5 h 13.63"
             style="fill:none;stroke:#00ff00;stroke-width:1;stroke-linecap:butt;stroke-linejoin:miter;stroke-miterlimit:10;stroke-dasharray:none;stroke-opacity:1"
             id="path118"
             inkscape:connector-curvature="0" /><path
             d="m 546.88,402.5 -7,2.32999 1.75,-2.32999 -1.75,-2.32999 z"
             style="fill:#00ff00;fill-opacity:1;fill-rule:nonzero;stroke:none"
             id="path120"
             inkscape:connector-curvature="0" /><path
             d="m 546.88,402.5 -7,2.32999 1.75,-2.32999 -1.75,-2.32999 z"
             style="fill:none;stroke:#00ff00;stroke-width:1;stroke-linecap:butt;stroke-linejoin:miter;stroke-miterlimit:10;stroke-dasharray:none;stroke-opacity:1"
             id="path122"
             inkscape:connector-curvature="0" /><path
             d="M 528,402.5 V 388.87"
             style="fill:none;stroke:#0000ff;stroke-width:1;stroke-linecap:butt;stroke-linejoin:miter;stroke-miterlimit:10;stroke-dasharray:none;stroke-opacity:0.6"
             id="path124"
             inkscape:connector-curvature="0" /><path
             d="m 528,383.62 2.33002,7 -2.33002,-1.75 -2.33002,1.75 z"
             style="fill:#0000ff;fill-opacity:0.6;fill-rule:nonzero;stroke:none"
             id="path126"
             inkscape:connector-curvature="0" /><path
             d="m 528,383.62 2.33002,7 -2.33002,-1.75 -2.33002,1.75 z"
             style="fill:none;stroke:#0000ff;stroke-width:1;stroke-linecap:butt;stroke-linejoin:miter;stroke-miterlimit:10;stroke-dasharray:none;stroke-opacity:0.6"
             id="path128"
             inkscape:connector-curvature="0" /><path
             d="m 531,402.5 c -6e-5,0.3978 -0.0762,0.78046 -0.22845,1.14801 -0.15223,0.36752 -0.36896,0.69196 -0.65027,0.9733 -0.28131,0.28128 -0.60578,0.49804 -0.97327,0.65027 -0.36755,0.15225 -0.75024,0.22839 -1.14801,0.22842 -0.39789,-3e-5 -0.78058,-0.0761 -1.14813,-0.22836 -0.36749,-0.15226 -0.6919,-0.36905 -0.97321,-0.65033 -0.28131,-0.28134 -0.49811,-0.60578 -0.65033,-0.9733 C 525.07605,403.28046 524.99994,402.8978 525,402.5 c -6e-5,-0.39786 0.0761,-0.78055 0.22833,-1.1481 0.15222,-0.36759 0.36902,-0.69199 0.65033,-0.97327 0.28131,-0.28131 0.60572,-0.49808 0.97321,-0.65033 0.36755,-0.15219 0.75024,-0.2283 1.14813,-0.2283 0.39777,0 0.78046,0.0761 1.14801,0.2283 0.36749,0.15225 0.69196,0.36902 0.97327,0.65033 0.28131,0.28128 0.49804,0.60568 0.65027,0.97327 0.15228,0.36755 0.22839,0.75024 0.22845,1.1481 z"
             style="fill:#000000;fill-opacity:1;fill-rule:nonzero;stroke:none"
             id="path130"
             inkscape:connector-curvature="0" /><path
             d="m 528,350 h 13.63"
             style="fill:none;stroke:#0000ff;stroke-width:1;stroke-linecap:butt;stroke-linejoin:miter;stroke-miterlimit:10;stroke-dasharray:none;stroke-opacity:1"
             id="path132"
             inkscape:connector-curvature="0" /><path
             d="m 546.88,350 -7,2.32999 1.75,-2.32999 -1.75,-2.32999 z"
             style="fill:#0000ff;fill-opacity:1;fill-rule:nonzero;stroke:none"
             id="path134"
             inkscape:connector-curvature="0" /><path
             d="m 546.88,350 -7,2.32999 1.75,-2.32999 -1.75,-2.32999 z"
             style="fill:none;stroke:#0000ff;stroke-width:1;stroke-linecap:butt;stroke-linejoin:miter;stroke-miterlimit:10;stroke-dasharray:none;stroke-opacity:1"
             id="path136"
             inkscape:connector-curvature="0" /><path
             d="m 528,350 v 13.63"
             style="fill:none;stroke:#00ff00;stroke-width:1;stroke-linecap:butt;stroke-linejoin:miter;stroke-miterlimit:10;stroke-dasharray:none;stroke-opacity:0.6"
             id="path138"
             inkscape:connector-curvature="0" /><path
             d="m 528,368.88 -2.33002,-7 2.33002,1.75 2.33002,-1.75 z"
             style="fill:#00ff00;fill-opacity:0.6;fill-rule:nonzero;stroke:none"
             id="path140"
             inkscape:connector-curvature="0" /><path
             d="m 528,368.88 -2.33002,-7 2.33002,1.75 2.33002,-1.75 z"
             style="fill:none;stroke:#00ff00;stroke-width:1;stroke-linecap:butt;stroke-linejoin:miter;stroke-miterlimit:10;stroke-dasharray:none;stroke-opacity:0.6"
             id="path142"
             inkscape:connector-curvature="0" /><path
             d="m 528,350 -9.5,9.5"
             style="fill:none;stroke:#ff0000;stroke-width:1;stroke-linecap:butt;stroke-linejoin:miter;stroke-miterlimit:10;stroke-dasharray:none;stroke-opacity:1"
             id="path144"
             inkscape:connector-curvature="0" /><path
             d="m 514.78998,363.20999 3.30005,-6.6 0.40997,2.89001 2.89001,0.41 z"
             style="fill:#ff0000;fill-opacity:1;fill-rule:nonzero;stroke:none"
             id="path146"
             inkscape:connector-curvature="0" /><path
             d="m 514.78998,363.20999 3.30005,-6.6 0.40997,2.89001 2.89001,0.41 z"
             style="fill:none;stroke:#ff0000;stroke-width:1;stroke-linecap:butt;stroke-linejoin:miter;stroke-miterlimit:10;stroke-dasharray:none;stroke-opacity:1"
             id="path148"
             inkscape:connector-curvature="0" /></g><g
           id="g150"
           transform="scale(2.9950142)"><text
             transform="translate(514.375,350)"
             style="font-variant:normal;font-weight:normal;font-size:11px;font-family:Georgia;-inkscape-font-specification:Georgia;writing-mode:lr-tb;fill:#000000;fill-opacity:1;fill-rule:nonzero;stroke:none"
             id="text154"><tspan
               x="0"
               y="0"
               id="tspan152">D</tspan></text>
<path
             d="m 737,320 -50,50"
             style="fill:none;stroke:#000000;stroke-width:1;stroke-linecap:butt;stroke-linejoin:miter;stroke-miterlimit:10;stroke-dasharray:none;stroke-opacity:1"
             id="path156"
             inkscape:connector-curvature="0" /><text
             transform="translate(698.34375,344)"
             style="font-style:italic;font-variant:normal;font-size:11px;font-family:Georgia;-inkscape-font-specification:Georgia-Italic;writing-mode:lr-tb;fill:#000000;fill-opacity:1;fill-rule:nonzero;stroke:none"
             id="text160"><tspan
               x="0"
               y="0"
               id="tspan158">k</tspan></text>
<text
             transform="translate(704.14063,347)"
             style="font-style:italic;font-variant:normal;font-size:9.15999985px;font-family:Georgia;-inkscape-font-specification:Georgia-Italic;writing-mode:lr-tb;fill:#000000;fill-opacity:1;fill-rule:nonzero;stroke:none"
             id="text164"><tspan
               x="0"
               y="0"
               id="tspan162">7</tspan></text>
</g><g
           id="g166"
           transform="matrix(2.9950142,0,0,2.9950142,1.4975071,1.4975071)"><path
             d="m 640,420 c -6e-5,0.3978 -0.0762,0.78049 -0.22845,1.14804 -0.15229,0.36752 -0.36902,0.69193 -0.65027,0.97327 -0.28138,0.28128 -0.60578,0.49804 -0.97327,0.6503 -0.36755,0.15225 -0.75024,0.22836 -1.14801,0.22839 -0.39783,-3e-5 -0.78052,-0.0761 -1.14813,-0.22839 -0.36756,-0.15226 -0.69196,-0.36902 -0.97327,-0.6503 -0.28131,-0.28134 -0.49811,-0.60578 -0.65039,-0.9733 C 634.07599,420.78049 633.99994,420.3978 634,420 c -6e-5,-0.39786 0.076,-0.78055 0.22821,-1.1481 0.15228,-0.36752 0.36908,-0.69196 0.65039,-0.97324 0.28131,-0.28131 0.60571,-0.49808 0.97327,-0.65033 C 636.21948,417.07611 636.60217,417 637,417 c 0.39777,0 0.78046,0.0761 1.14801,0.22833 0.36749,0.15225 0.69189,0.36902 0.97327,0.65033 0.28125,0.28128 0.49798,0.60572 0.65027,0.97324 0.15228,0.36755 0.22839,0.75024 0.22845,1.1481 z"
             style="fill:#000000;fill-opacity:1;fill-rule:nonzero;stroke:none"
             id="path168"
             inkscape:connector-curvature="0" /></g><g
           id="g170"
           transform="scale(2.9950142)"><path
             d="m 637,420 50,-50"
             style="fill:none;stroke:#000000;stroke-width:1;stroke-linecap:butt;stroke-linejoin:miter;stroke-miterlimit:10;stroke-dasharray:none;stroke-opacity:1"
             id="path172"
             inkscape:connector-curvature="0" /><text
             transform="translate(663.54688,407)"
             style="font-style:italic;font-variant:normal;font-size:11px;font-family:Georgia;-inkscape-font-specification:Georgia-Italic;writing-mode:lr-tb;fill:#000000;fill-opacity:1;fill-rule:nonzero;stroke:none"
             id="text176"><tspan
               x="0"
               y="0"
               id="tspan174">k</tspan></text>
<text
             transform="translate(669.34375,410)"
             style="font-style:italic;font-variant:normal;font-size:8.32999992px;font-family:Georgia;-inkscape-font-specification:Georgia-Italic;writing-mode:lr-tb;fill:#000000;fill-opacity:1;fill-rule:nonzero;stroke:none"
             id="text180"><tspan
               x="0"
               y="0"
               id="tspan178">7</tspan></text>
</g><g
           id="g182"
           transform="matrix(2.9950142,0,0,2.9950142,1.4975071,1.4975071)"><path
             d="m 670,350 c -6e-5,0.3978 -0.0762,0.78046 -0.22852,1.14801 -0.15222,0.36755 -0.36895,0.69199 -0.65026,0.9733 -0.28132,0.28128 -0.60578,0.49804 -0.97327,0.6503 -0.36755,0.15225 -0.75018,0.22836 -1.14795,0.22839 -0.39789,-3e-5 -0.78058,-0.0761 -1.14813,-0.22839 -0.36756,-0.15226 -0.69196,-0.36902 -0.97321,-0.6503 -0.28131,-0.28131 -0.49811,-0.60575 -0.65033,-0.9733 C 664.07605,350.78046 663.99994,350.3978 664,350 c -6e-5,-0.39786 0.0761,-0.78055 0.22833,-1.1481 0.15222,-0.36756 0.36902,-0.69199 0.65033,-0.97327 0.28125,-0.28131 0.60565,-0.49808 0.97321,-0.6503 C 666.21942,347.07611 666.60211,347 667,347 c 0.39777,0 0.7804,0.0761 1.14795,0.22833 0.36749,0.15222 0.69195,0.36899 0.97327,0.6503 0.28131,0.28128 0.49804,0.60571 0.65026,0.97327 0.15229,0.36755 0.22846,0.75024 0.22852,1.1481 z"
             style="fill:#000000;fill-opacity:1;fill-rule:nonzero;stroke:none"
             id="path184"
             inkscape:connector-curvature="0" /></g><g
           id="g186"
           transform="scale(2.9950142)"><path
             d="m 647,350 h 20"
             style="fill:none;stroke:#808080;stroke-width:1;stroke-linecap:butt;stroke-linejoin:miter;stroke-miterlimit:10;stroke-dasharray:none;stroke-opacity:1"
             id="path188"
             inkscape:connector-curvature="0" /></g><g
           id="g190"
           transform="matrix(0.04065914,0,0,-0.04044176,1949.7543,1038.5575)"><path
             d="m 121,647 c 0,6.66669 1.33334,14.33331 4,23 2.66666,8.66669 6.66667,13 12,13 0.66667,0 24.66666,1.66669 72,5 47.33334,3.33331 71.66666,5.33331 73,6 8,0 12,-2.66669 12,-8 0,-4.66669 -16.66666,-74.33331 -50,-209 -33.33334,-132 -50,-200.33334 -50,-205 12.66667,6.66666 22.33333,13 29,19 16,12 39,33 69,63 30,30 53.33334,50.33334 70,61 26.66666,18 52,27 76,27 20,0 35.66666,-6.33334 47,-19 11.33334,-12.66666 17.33334,-30.66666 18,-54 0,-16.66666 -2.33334,-30.66666 -7,-42 -4.66666,-11.33334 -11,-19.66666 -19,-25 -8,-5.33334 -15,-9 -21,-11 -6,-2 -12,-3 -18,-3 -13.33334,0 -24,3.66666 -32,11 -8,7.33334 -12,17 -12,29 0,16.66666 5.33334,30.33334 16,41 10.66666,10.66666 21.33334,17.66666 32,21 l 16,3 c -8,8 -16,12 -24,12 h -4 c -21.33334,-2 -42.33334,-10.33334 -63,-25 -20.66666,-14.66666 -45,-36 -73,-64 -28,-28 -50,-48.33334 -66,-61 1.33333,-0.66667 6.33333,-1.66667 15,-3 8.66667,-1.33333 16.66666,-3.33333 24,-6 7.33334,-2.66667 16,-5.33333 26,-8 10,-2.66667 19,-7.33333 27,-14 8,-6.66667 15.33334,-12.66667 22,-18 6.66666,-5.33333 12.33334,-14 17,-26 4.66666,-12 6.66666,-23 6,-33 0,-11.33333 -1.66666,-25 -5,-41 -3.33334,-16 -5.33334,-29.333336 -6,-40 0,-26.666668 9,-40 27,-40 32,0 58,39.666664 78,119 1.33334,5.33333 8,8 20,8 h 4 c 10.66666,0 16,-3 16,-9 0,-3.33333 -1,-8 -3,-14 -27.33334,-94 -66.66666,-141 -118,-141 -30,0 -54.33334,8.666666 -73,26 -18.66666,17.333336 -28,42.333332 -28,75 0,12 1,22.33334 3,31 2,8.66667 3,16.66667 3,24 0,14.66667 -4.66666,27.33333 -14,38 -9.33334,10.66667 -21,18.33333 -35,23 -14,4.66667 -25.33333,8.33333 -34,11 -8.66667,2.66667 -14.66667,3.66667 -18,3 h -2 c -8,-28 -15,-55 -21,-81 -6,-26 -10.66667,-45.333336 -14,-58 -3.33333,-12.666664 -6.33333,-25 -9,-37 -2.66667,-12 -5,-20 -7,-24 -2,-4 -4.33334,-8.333333 -7,-13 -2.66666,-4.666667 -6.33334,-7.66666663 -11,-9 -8.66666,-6 -18,-9 -28,-9 -11.333336,0 -20,3.333333 -26,10 -6,6.666667 -9,12.333333 -9,17 0,6.666668 12.333332,60 37,160 24.66667,100 49,198.33331 73,295 l 37,145 c 0.66667,8.66669 -1.66667,14 -7,16 -5.33333,2 -18.33333,3.66669 -39,5 h -5 c -6.66667,0 -11,0 -13,0 -2,0 -4.33334,1 -7,3 -2.66666,2 -3.66666,4.33331 -3,7 z"
             style="fill:#808080;fill-opacity:1;fill-rule:nonzero;stroke:none"
             id="path192"
             inkscape:connector-curvature="0" /><path
             d="m 121,647 c 0,6.66669 1.33334,14.33331 4,23 2.66666,8.66669 6.66667,13 12,13 0.66667,0 24.66666,1.66669 72,5 47.33334,3.33331 71.66666,5.33331 73,6 8,0 12,-2.66669 12,-8 0,-4.66669 -16.66666,-74.33331 -50,-209 -33.33334,-132 -50,-200.33334 -50,-205 12.66667,6.66666 22.33333,13 29,19 16,12 39,33 69,63 30,30 53.33334,50.33334 70,61 26.66666,18 52,27 76,27 20,0 35.66666,-6.33334 47,-19 11.33334,-12.66666 17.33334,-30.66666 18,-54 0,-16.66666 -2.33334,-30.66666 -7,-42 -4.66666,-11.33334 -11,-19.66666 -19,-25 -8,-5.33334 -15,-9 -21,-11 -6,-2 -12,-3 -18,-3 -13.33334,0 -24,3.66666 -32,11 -8,7.33334 -12,17 -12,29 0,16.66666 5.33334,30.33334 16,41 10.66666,10.66666 21.33334,17.66666 32,21 l 16,3 c -8,8 -16,12 -24,12 h -4 c -21.33334,-2 -42.33334,-10.33334 -63,-25 -20.66666,-14.66666 -45,-36 -73,-64 -28,-28 -50,-48.33334 -66,-61 1.33333,-0.66667 6.33333,-1.66667 15,-3 8.66667,-1.33333 16.66666,-3.33333 24,-6 7.33334,-2.66667 16,-5.33333 26,-8 10,-2.66667 19,-7.33333 27,-14 8,-6.66667 15.33334,-12.66667 22,-18 6.66666,-5.33333 12.33334,-14 17,-26 4.66666,-12 6.66666,-23 6,-33 0,-11.33333 -1.66666,-25 -5,-41 -3.33334,-16 -5.33334,-29.333336 -6,-40 0,-26.666668 9,-40 27,-40 32,0 58,39.666664 78,119 1.33334,5.33333 8,8 20,8 h 4 c 10.66666,0 16,-3 16,-9 0,-3.33333 -1,-8 -3,-14 -27.33334,-94 -66.66666,-141 -118,-141 -30,0 -54.33334,8.666666 -73,26 -18.66666,17.333336 -28,42.333332 -28,75 0,12 1,22.33334 3,31 2,8.66667 3,16.66667 3,24 0,14.66667 -4.66666,27.33333 -14,38 -9.33334,10.66667 -21,18.33333 -35,23 -14,4.66667 -25.33333,8.33333 -34,11 -8.66667,2.66667 -14.66667,3.66667 -18,3 h -2 c -8,-28 -15,-55 -21,-81 -6,-26 -10.66667,-45.333336 -14,-58 -3.33333,-12.666664 -6.33333,-25 -9,-37 -2.66667,-12 -5,-20 -7,-24 -2,-4 -4.33334,-8.333333 -7,-13 -2.66666,-4.666667 -6.33334,-7.66666663 -11,-9 -8.66666,-6 -18,-9 -28,-9 -11.333336,0 -20,3.333333 -26,10 -6,6.666667 -9,12.333333 -9,17 0,6.666668 12.333332,60 37,160 24.66667,100 49,198.33331 73,295 l 37,145 c 0.66667,8.66669 -1.66667,14 -7,16 -5.33333,2 -18.33333,3.66669 -39,5 h -5 c -6.66667,0 -11,0 -13,0 -2,0 -4.33334,1 -7,3 -2.66666,2 -3.66666,4.33331 -3,7 z"
             style="fill:none;stroke:#808080;stroke-width:1;stroke-linecap:butt;stroke-linejoin:miter;stroke-miterlimit:10;stroke-dasharray:none;stroke-opacity:0.12159998"
             id="path194"
             inkscape:connector-curvature="0" /></g></g></g><g
       id="g196"
       transform="matrix(2.731997,0,0,2.731997,-4075.8149,-2416.7287)"><g
         id="g198"
         clip-path="url(#clipPath202)"><g
           id="g204"
           transform="matrix(0.06355023,0,0,-0.04044176,1944.4563,1028.2449)"><path
             d="m 69,544 v 46 h 361 v -46 z"
             style="fill:#808080;fill-opacity:1;fill-rule:nonzero;stroke:none"
             id="path206"
             inkscape:connector-curvature="0" /><path
             d="m 69,544 v 46 h 361 v -46 z"
             style="fill:none;stroke:#808080;stroke-width:1;stroke-linecap:butt;stroke-linejoin:miter;stroke-miterlimit:10;stroke-dasharray:none;stroke-opacity:0.15290001"
             id="path208"
             inkscape:connector-curvature="0" /></g></g></g><g
       id="g210"
       transform="matrix(2.731997,0,0,2.731997,-4075.8149,-2416.7287)"><g
         id="g212"
         clip-path="url(#clipPath216)"><g
           id="g218"
           transform="matrix(0.02874601,0,0,-0.02859232,1972.2794,1044.6238)"><path
             d="m 127,463 c -18,0 -32,5.66666 -42,17 -10,11.33334 -15.333336,26 -16,44 0,36.66669 16,69.33331 48,98 32,28.66669 70.66666,43 116,43 23.33334,0 38,-0.33331 44,-1 49.33334,-8 87,-25.66669 113,-53 26,-27.33331 39.33334,-57 40,-89 0,-34.66666 -11.33334,-68.33334 -34,-101 -22.66666,-32.66666 -54,-56.33334 -94,-71 l -3,-2 c 0,-0.66666 3,-1.66666 9,-3 6,-1.33334 15.66666,-4.33334 29,-9 13.33334,-4.66666 26,-11.66666 38,-21 54.66666,-35.33334 82,-82 82,-140 C 457,122.33333 436.33334,76.333336 395,37 353.66666,-2.3333359 301.33334,-22 238,-22 184.66666,-22 138.66667,-7.6666679 100,21 61.333332,49.666668 42,86 42,130 c 0,18.66667 6,33.66667 18,45 12,11.33333 27,17.33333 45,18 18.66667,0 34,-6 46,-18 12,-12 18,-27 18,-45 0,-7.33334 -1,-14 -3,-20 -2,-6 -4.33333,-11.333336 -7,-16 -2.66667,-4.666664 -6.33333,-8.666664 -11,-12 -4.66667,-3.333336 -8.66667,-6 -12,-8 -3.33333,-2 -6.66667,-3.333336 -10,-4 -3.33334,-0.666664 -6,-1.666664 -8,-3 l -4,-1 c 34,-30 75.33333,-45 124,-45 36.66666,0 64.33334,17.666664 83,53 11.33334,22 17,55.66666 17,101 v 20 c 0,63.33334 -21.33334,105.66666 -64,127 -10,4 -30.33333,6.33334 -61,7 l -42,1 -3,2 c -1.33333,2 -2,7.33334 -2,16 0,12 2.66667,18 8,18 18.66667,0 38,1.66666 58,5 22.66667,3.33334 43.33334,17.33334 62,42 18.66666,24.66666 28,62 28,112 v 8 c 0,38 -11.66666,64.33331 -35,79 -14.66666,9.33331 -30.33334,14 -47,14 -21.33333,0 -41,-3.66669 -59,-11 -18,-7.33331 -30.66667,-15 -38,-23 -7.33333,-8 -11,-12 -11,-12 h 3 c 2,-0.66669 4.66667,-1.33331 8,-2 3.33333,-0.66669 6.66667,-2.33331 10,-5 3.33333,-2.66669 7.33333,-5 12,-7 4.66667,-2 8,-5.66669 10,-11 2,-5.33331 4.66667,-10.33331 8,-15 3.33333,-4.66669 4.33333,-11.33331 3,-20 0,-14.66666 -4.66667,-27.66666 -14,-39 -9.33333,-11.33334 -24.33333,-17.33334 -45,-18 z"
             style="fill:#808080;fill-opacity:1;fill-rule:nonzero;stroke:none"
             id="path220"
             inkscape:connector-curvature="0" /><path
             d="m 127,463 c -18,0 -32,5.66666 -42,17 -10,11.33334 -15.333336,26 -16,44 0,36.66669 16,69.33331 48,98 32,28.66669 70.66666,43 116,43 23.33334,0 38,-0.33331 44,-1 49.33334,-8 87,-25.66669 113,-53 26,-27.33331 39.33334,-57 40,-89 0,-34.66666 -11.33334,-68.33334 -34,-101 -22.66666,-32.66666 -54,-56.33334 -94,-71 l -3,-2 c 0,-0.66666 3,-1.66666 9,-3 6,-1.33334 15.66666,-4.33334 29,-9 13.33334,-4.66666 26,-11.66666 38,-21 54.66666,-35.33334 82,-82 82,-140 C 457,122.33333 436.33334,76.333336 395,37 353.66666,-2.3333359 301.33334,-22 238,-22 184.66666,-22 138.66667,-7.6666679 100,21 61.333332,49.666668 42,86 42,130 c 0,18.66667 6,33.66667 18,45 12,11.33333 27,17.33333 45,18 18.66667,0 34,-6 46,-18 12,-12 18,-27 18,-45 0,-7.33334 -1,-14 -3,-20 -2,-6 -4.33333,-11.333336 -7,-16 -2.66667,-4.666664 -6.33333,-8.666664 -11,-12 -4.66667,-3.333336 -8.66667,-6 -12,-8 -3.33333,-2 -6.66667,-3.333336 -10,-4 -3.33334,-0.666664 -6,-1.666664 -8,-3 l -4,-1 c 34,-30 75.33333,-45 124,-45 36.66666,0 64.33334,17.666664 83,53 11.33334,22 17,55.66666 17,101 v 20 c 0,63.33334 -21.33334,105.66666 -64,127 -10,4 -30.33333,6.33334 -61,7 l -42,1 -3,2 c -1.33333,2 -2,7.33334 -2,16 0,12 2.66667,18 8,18 18.66667,0 38,1.66666 58,5 22.66667,3.33334 43.33334,17.33334 62,42 18.66666,24.66666 28,62 28,112 v 8 c 0,38 -11.66666,64.33331 -35,79 -14.66666,9.33331 -30.33334,14 -47,14 -21.33333,0 -41,-3.66669 -59,-11 -18,-7.33331 -30.66667,-15 -38,-23 -7.33333,-8 -11,-12 -11,-12 h 3 c 2,-0.66669 4.66667,-1.33331 8,-2 3.33333,-0.66669 6.66667,-2.33331 10,-5 3.33333,-2.66669 7.33333,-5 12,-7 4.66667,-2 8,-5.66669 10,-11 2,-5.33331 4.66667,-10.33331 8,-15 3.33333,-4.66669 4.33333,-11.33331 3,-20 0,-14.66666 -4.66667,-27.66666 -14,-39 -9.33333,-11.33334 -24.33333,-17.33334 -45,-18 z"
             style="fill:none;stroke:#808080;stroke-width:1;stroke-linecap:butt;stroke-linejoin:miter;stroke-miterlimit:10;stroke-dasharray:none;stroke-opacity:0.0863"
             id="path222"
             inkscape:connector-curvature="0" /></g><g
           id="g224"
           transform="scale(2.9950142)"><path
             d="M 687,370 667,350"
             style="fill:none;stroke:#003366;stroke-width:1;stroke-linecap:butt;stroke-linejoin:miter;stroke-miterlimit:10;stroke-dasharray:none;stroke-opacity:1"
             id="path226"
             inkscape:connector-curvature="0" /><text
             transform="translate(675.01563,355)"
             style="font-style:italic;font-variant:normal;font-size:11px;font-family:Georgia;-inkscape-font-specification:Georgia-Italic;writing-mode:lr-tb;fill:#003366;fill-opacity:1;fill-rule:nonzero;stroke:none"
             id="text230"><tspan
               x="0"
               y="0"
               id="tspan228">k</tspan></text>
<text
             transform="translate(680.8125,358)"
             style="font-style:italic;font-variant:normal;font-size:9.15999985px;font-family:Georgia;-inkscape-font-specification:Georgia-Italic;writing-mode:lr-tb;fill:#003366;fill-opacity:1;fill-rule:nonzero;stroke:none"
             id="text234"><tspan
               x="0"
               y="0"
               id="tspan232">6</tspan></text>
</g><g
           id="g236"
           transform="matrix(2.9950142,0,0,2.9950142,1.4975071,1.4975071)"><path
             d="m 740,320 c -6e-5,0.39783 -0.0762,0.78049 -0.22839,1.14801 -0.15229,0.36755 -0.36908,0.69199 -0.65033,0.9733 -0.28138,0.28128 -0.60584,0.49804 -0.97333,0.6503 -0.36749,0.15225 -0.75018,0.22836 -1.14795,0.22839 -0.39789,-3e-5 -0.78058,-0.0761 -1.14807,-0.22839 -0.36762,-0.15226 -0.69202,-0.36902 -0.97333,-0.6503 -0.28131,-0.28131 -0.49811,-0.60575 -0.65033,-0.9733 C 734.07605,320.78049 733.99994,320.39783 734,320 c -6e-5,-0.39786 0.0761,-0.78055 0.22827,-1.14807 0.15222,-0.36755 0.36902,-0.69199 0.65033,-0.97327 0.28131,-0.28131 0.60571,-0.49808 0.97327,-0.65033 C 736.21942,317.07611 736.60211,317 737,317 c 0.39777,0 0.78046,0.0761 1.14795,0.22833 0.36749,0.15225 0.69195,0.36902 0.97333,0.65033 0.28125,0.28128 0.49798,0.60572 0.65027,0.97327 0.15228,0.36752 0.22839,0.75021 0.22845,1.14807 z"
             style="fill:#000000;fill-opacity:1;fill-rule:nonzero;stroke:none"
             id="path238"
             inkscape:connector-curvature="0" /><path
             d="m 527,470 -10.5,10.5"
             style="fill:none;stroke:#ff0000;stroke-width:1;stroke-linecap:butt;stroke-linejoin:miter;stroke-miterlimit:10;stroke-dasharray:none;stroke-opacity:1"
             id="path240"
             inkscape:connector-curvature="0" /><path
             d="m 512.78998,484.20999 3.30005,-6.6 0.40997,2.89001 2.89001,0.41 z"
             style="fill:#ff0000;fill-opacity:1;fill-rule:nonzero;stroke:none"
             id="path242"
             inkscape:connector-curvature="0" /><path
             d="m 512.78998,484.20999 3.30005,-6.6 0.40997,2.89001 2.89001,0.41 z"
             style="fill:none;stroke:#ff0000;stroke-width:1;stroke-linecap:butt;stroke-linejoin:miter;stroke-miterlimit:10;stroke-dasharray:none;stroke-opacity:1"
             id="path244"
             inkscape:connector-curvature="0" /><path
             d="m 527,470 h 13.63"
             style="fill:none;stroke:#00ff00;stroke-width:1;stroke-linecap:butt;stroke-linejoin:miter;stroke-miterlimit:10;stroke-dasharray:none;stroke-opacity:1"
             id="path246"
             inkscape:connector-curvature="0" /><path
             d="m 545.88,470 -7,2.32999 1.75,-2.32999 -1.75,-2.32999 z"
             style="fill:#00ff00;fill-opacity:1;fill-rule:nonzero;stroke:none"
             id="path248"
             inkscape:connector-curvature="0" /><path
             d="m 545.88,470 -7,2.32999 1.75,-2.32999 -1.75,-2.32999 z"
             style="fill:none;stroke:#00ff00;stroke-width:1;stroke-linecap:butt;stroke-linejoin:miter;stroke-miterlimit:10;stroke-dasharray:none;stroke-opacity:1"
             id="path250"
             inkscape:connector-curvature="0" /><path
             d="M 527,470 V 456.37"
             style="fill:none;stroke:#0000ff;stroke-width:1;stroke-linecap:butt;stroke-linejoin:miter;stroke-miterlimit:10;stroke-dasharray:none;stroke-opacity:1"
             id="path252"
             inkscape:connector-curvature="0" /><path
             d="m 527,451.12 2.33002,7 -2.33002,-1.75 -2.33002,1.75 z"
             style="fill:#0000ff;fill-opacity:1;fill-rule:nonzero;stroke:none"
             id="path254"
             inkscape:connector-curvature="0" /><path
             d="m 527,451.12 2.33002,7 -2.33002,-1.75 -2.33002,1.75 z"
             style="fill:none;stroke:#0000ff;stroke-width:1;stroke-linecap:butt;stroke-linejoin:miter;stroke-miterlimit:10;stroke-dasharray:none;stroke-opacity:1"
             id="path256"
             inkscape:connector-curvature="0" /></g><g
           id="g258"
           transform="scale(2.9950142)"><text
             transform="translate(512.46875,469)"
             style="font-variant:normal;font-weight:normal;font-size:11px;font-family:Georgia;-inkscape-font-specification:Georgia;writing-mode:lr-tb;fill:#000000;fill-opacity:1;fill-rule:nonzero;stroke:none"
             id="text262"><tspan
               x="0"
               y="0"
               id="tspan260">S</tspan></text>
<text
             transform="translate(518.625,472)"
             style="font-variant:normal;font-weight:normal;font-size:9.15999985px;font-family:Georgia;-inkscape-font-specification:Georgia;writing-mode:lr-tb;fill:#000000;fill-opacity:1;fill-rule:nonzero;stroke:none"
             id="text266"><tspan
               x="0"
               y="0"
               id="tspan264">1</tspan></text>
</g><g
           id="g268"
           transform="matrix(2.9950142,0,0,2.9950142,1.4975071,1.4975071)"><path
             d="m 527,560 -10.5,10.5"
             style="fill:none;stroke:#ff0000;stroke-width:1;stroke-linecap:butt;stroke-linejoin:miter;stroke-miterlimit:10;stroke-dasharray:none;stroke-opacity:1"
             id="path270"
             inkscape:connector-curvature="0" /><path
             d="m 512.78998,574.21002 3.30005,-6.60003 0.40997,2.89001 2.89001,0.40997 z"
             style="fill:#ff0000;fill-opacity:1;fill-rule:nonzero;stroke:none"
             id="path272"
             inkscape:connector-curvature="0" /><path
             d="m 512.78998,574.21002 3.30005,-6.60003 0.40997,2.89001 2.89001,0.40997 z"
             style="fill:none;stroke:#ff0000;stroke-width:1;stroke-linecap:butt;stroke-linejoin:miter;stroke-miterlimit:10;stroke-dasharray:none;stroke-opacity:1"
             id="path274"
             inkscape:connector-curvature="0" /><path
             d="m 527,560 h 13.63"
             style="fill:none;stroke:#00ff00;stroke-width:1;stroke-linecap:butt;stroke-linejoin:miter;stroke-miterlimit:10;stroke-dasharray:none;stroke-opacity:1"
             id="path276"
             inkscape:connector-curvature="0" /><path
             d="m 545.88,560 -7,2.33002 1.75,-2.33002 -1.75,-2.33002 z"
             style="fill:#00ff00;fill-opacity:1;fill-rule:nonzero;stroke:none"
             id="path278"
             inkscape:connector-curvature="0" /><path
             d="m 545.88,560 -7,2.33002 1.75,-2.33002 -1.75,-2.33002 z"
             style="fill:none;stroke:#00ff00;stroke-width:1;stroke-linecap:butt;stroke-linejoin:miter;stroke-miterlimit:10;stroke-dasharray:none;stroke-opacity:1"
             id="path280"
             inkscape:connector-curvature="0" /></g><g
           id="g282"
           transform="scale(2.9950142)"><text
             transform="translate(525.85938,577)"
             style="font-variant:normal;font-weight:normal;font-size:11px;font-family:Georgia;-inkscape-font-specification:Georgia;writing-mode:lr-tb;fill:#000000;fill-opacity:1;fill-rule:nonzero;stroke:none"
             id="text286"><tspan
               x="0"
               y="0"
               id="tspan284">A</tspan></text>
<text
             transform="translate(533.23438,580)"
             style="font-variant:normal;font-weight:normal;font-size:9.15999985px;font-family:Georgia;-inkscape-font-specification:Georgia;writing-mode:lr-tb;fill:#000000;fill-opacity:1;fill-rule:nonzero;stroke:none"
             id="text290"><tspan
               x="0"
               y="0"
               id="tspan288">1</tspan></text>
</g><g
           id="g292"
           transform="matrix(2.9950142,0,0,2.9950142,1.4975071,1.4975071)"><path
             d="M 527,560 V 546.37"
             style="fill:none;stroke:#0000ff;stroke-width:1;stroke-linecap:butt;stroke-linejoin:miter;stroke-miterlimit:10;stroke-dasharray:none;stroke-opacity:1"
             id="path294"
             inkscape:connector-curvature="0" /><path
             d="m 527,541.12 2.33002,7 -2.33002,-1.75 -2.33002,1.75 z"
             style="fill:#0000ff;fill-opacity:1;fill-rule:nonzero;stroke:none"
             id="path296"
             inkscape:connector-curvature="0" /><path
             d="m 527,541.12 2.33002,7 -2.33002,-1.75 -2.33002,1.75 z"
             style="fill:none;stroke:#0000ff;stroke-width:1;stroke-linecap:butt;stroke-linejoin:miter;stroke-miterlimit:10;stroke-dasharray:none;stroke-opacity:1"
             id="path298"
             inkscape:connector-curvature="0" /><path
             d="m 530,560 c -6e-5,0.39777 -0.0762,0.7804 -0.22839,1.14795 -0.15229,0.36755 -0.36902,0.69202 -0.65033,0.97333 -0.28131,0.28125 -0.60578,0.49804 -0.97327,0.65033 -0.36755,0.15222 -0.75024,0.22833 -1.14801,0.22839 -0.39789,-6e-5 -0.78058,-0.0762 -1.14813,-0.22839 -0.36749,-0.15229 -0.6919,-0.36908 -0.97321,-0.65033 -0.28137,-0.28131 -0.49817,-0.60578 -0.65039,-0.97333 C 524.07605,560.7804 523.99994,560.39777 524,560 c -6e-5,-0.39789 0.0761,-0.78058 0.22827,-1.14813 0.15222,-0.36749 0.36902,-0.6919 0.65039,-0.97321 0.28131,-0.28137 0.60572,-0.49817 0.97321,-0.65033 C 526.21942,557.07611 526.60211,557 527,557 c 0.39777,0 0.78046,0.0761 1.14801,0.22833 0.36749,0.15216 0.69196,0.36896 0.97327,0.65033 0.28131,0.28131 0.49804,0.60572 0.65033,0.97321 0.15222,0.36755 0.22833,0.75024 0.22839,1.14813 z"
             style="fill:#000000;fill-opacity:1;fill-rule:nonzero;stroke:none"
             id="path300"
             inkscape:connector-curvature="0" /><path
             d="m 637,470 h 13.63"
             style="fill:none;stroke:#00ff00;stroke-width:1;stroke-linecap:butt;stroke-linejoin:miter;stroke-miterlimit:10;stroke-dasharray:none;stroke-opacity:1"
             id="path302"
             inkscape:connector-curvature="0" /><path
             d="m 655.88,470 -7,2.32999 1.75,-2.32999 -1.75,-2.32999 z"
             style="fill:#00ff00;fill-opacity:1;fill-rule:nonzero;stroke:none"
             id="path304"
             inkscape:connector-curvature="0" /><path
             d="m 655.88,470 -7,2.32999 1.75,-2.32999 -1.75,-2.32999 z"
             style="fill:none;stroke:#00ff00;stroke-width:1;stroke-linecap:butt;stroke-linejoin:miter;stroke-miterlimit:10;stroke-dasharray:none;stroke-opacity:1"
             id="path306"
             inkscape:connector-curvature="0" /></g><g
           id="g308"
           transform="scale(2.9950142)"><text
             transform="translate(637.29688,487)"
             style="font-variant:normal;font-weight:normal;font-size:11px;font-family:Georgia;-inkscape-font-specification:Georgia;writing-mode:lr-tb;fill:#000000;fill-opacity:1;fill-rule:nonzero;stroke:none"
             id="text312"><tspan
               x="0"
               y="0"
               id="tspan310">A</tspan></text>
<text
             transform="translate(644.67188,490)"
             style="font-variant:normal;font-weight:normal;font-size:9.15999985px;font-family:Georgia;-inkscape-font-specification:Georgia;writing-mode:lr-tb;fill:#000000;fill-opacity:1;fill-rule:nonzero;stroke:none"
             id="text316"><tspan
               x="0"
               y="0"
               id="tspan314">3</tspan></text>
</g><g
           id="g318"
           transform="matrix(2.9950142,0,0,2.9950142,1.4975071,1.4975071)"><path
             d="m 640,470 c -6e-5,0.3978 -0.0762,0.78049 -0.22845,1.14804 -0.15229,0.36749 -0.36902,0.6919 -0.65027,0.97324 -0.28138,0.28128 -0.60578,0.49804 -0.97327,0.6503 -0.36755,0.15225 -0.75024,0.22839 -1.14801,0.22842 -0.39783,-3e-5 -0.78052,-0.0762 -1.14813,-0.22842 -0.36756,-0.15226 -0.69196,-0.36902 -0.97327,-0.6503 -0.28131,-0.28134 -0.49811,-0.60575 -0.65039,-0.97327 C 634.07599,470.78049 633.99994,470.3978 634,470 c -6e-5,-0.39786 0.076,-0.78055 0.22821,-1.1481 0.15228,-0.36756 0.36908,-0.69196 0.65039,-0.97324 0.28131,-0.28131 0.60571,-0.49808 0.97327,-0.65033 C 636.21948,467.07611 636.60217,467 637,467 c 0.39777,0 0.78046,0.0761 1.14801,0.22833 0.36749,0.15225 0.69189,0.36902 0.97327,0.65033 0.28125,0.28128 0.49798,0.60568 0.65027,0.97324 0.15228,0.36755 0.22839,0.75024 0.22845,1.1481 z"
             style="fill:#000000;fill-opacity:1;fill-rule:nonzero;stroke:none"
             id="path320"
             inkscape:connector-curvature="0" /></g><g
           id="g322"
           transform="scale(2.9950142)"><path
             d="M 637,470 V 420"
             style="fill:none;stroke:#000000;stroke-width:1;stroke-linecap:butt;stroke-linejoin:miter;stroke-miterlimit:10;stroke-dasharray:none;stroke-opacity:1"
             id="path324"
             inkscape:connector-curvature="0" /><text
             transform="translate(641.875,436)"
             style="font-style:italic;font-variant:normal;font-size:11px;font-family:Georgia;-inkscape-font-specification:Georgia-Italic;writing-mode:lr-tb;fill:#000000;fill-opacity:1;fill-rule:nonzero;stroke:none"
             id="text328"><tspan
               x="0"
               y="0"
               id="tspan326">k</tspan></text>
<text
             transform="translate(647.67188,439)"
             style="font-style:italic;font-variant:normal;font-size:9.15999985px;font-family:Georgia;-inkscape-font-specification:Georgia-Italic;writing-mode:lr-tb;fill:#000000;fill-opacity:1;fill-rule:nonzero;stroke:none"
             id="text332"><tspan
               x="0"
               y="0"
               id="tspan330">8</tspan></text>
</g><g
           id="g334"
           transform="matrix(2.9950142,0,0,2.9950142,1.4975071,1.4975071)"><path
             d="M 637,470 V 456.37"
             style="fill:none;stroke:#0000ff;stroke-width:1;stroke-linecap:butt;stroke-linejoin:miter;stroke-miterlimit:10;stroke-dasharray:none;stroke-opacity:1"
             id="path336"
             inkscape:connector-curvature="0" /><path
             d="m 637,451.12 2.33002,7 -2.33002,-1.75 -2.33002,1.75 z"
             style="fill:#0000ff;fill-opacity:1;fill-rule:nonzero;stroke:none"
             id="path338"
             inkscape:connector-curvature="0" /><path
             d="m 637,451.12 2.33002,7 -2.33002,-1.75 -2.33002,1.75 z"
             style="fill:none;stroke:#0000ff;stroke-width:1;stroke-linecap:butt;stroke-linejoin:miter;stroke-miterlimit:10;stroke-dasharray:none;stroke-opacity:1"
             id="path340"
             inkscape:connector-curvature="0" /><path
             d="m 637,470 -9.5,9.5"
             style="fill:none;stroke:#ff0000;stroke-width:1;stroke-linecap:butt;stroke-linejoin:miter;stroke-miterlimit:10;stroke-dasharray:none;stroke-opacity:1"
             id="path342"
             inkscape:connector-curvature="0" /><path
             d="m 623.78998,483.20999 3.30005,-6.6 0.40997,2.89001 2.89001,0.41 z"
             style="fill:#ff0000;fill-opacity:1;fill-rule:nonzero;stroke:none"
             id="path344"
             inkscape:connector-curvature="0" /><path
             d="m 623.78998,483.20999 3.30005,-6.6 0.40997,2.89001 2.89001,0.41 z"
             style="fill:none;stroke:#ff0000;stroke-width:1;stroke-linecap:butt;stroke-linejoin:miter;stroke-miterlimit:10;stroke-dasharray:none;stroke-opacity:1"
             id="path346"
             inkscape:connector-curvature="0" /><path
             d="m 737,370 h 13.63"
             style="fill:none;stroke:#00ff00;stroke-width:1;stroke-linecap:butt;stroke-linejoin:miter;stroke-miterlimit:10;stroke-dasharray:none;stroke-opacity:1"
             id="path348"
             inkscape:connector-curvature="0" /><path
             d="m 755.88,370 -7,2.32999 1.75,-2.32999 -1.75,-2.32999 z"
             style="fill:#00ff00;fill-opacity:1;fill-rule:nonzero;stroke:none"
             id="path350"
             inkscape:connector-curvature="0" /><path
             d="m 755.88,370 -7,2.32999 1.75,-2.32999 -1.75,-2.32999 z"
             style="fill:none;stroke:#00ff00;stroke-width:1;stroke-linecap:butt;stroke-linejoin:miter;stroke-miterlimit:10;stroke-dasharray:none;stroke-opacity:1"
             id="path352"
             inkscape:connector-curvature="0" /></g><g
           id="g354"
           transform="scale(2.9950142)"><text
             transform="translate(736.40625,387)"
             style="font-variant:normal;font-weight:normal;font-size:11px;font-family:Georgia;-inkscape-font-specification:Georgia;writing-mode:lr-tb;fill:#000000;fill-opacity:1;fill-rule:nonzero;stroke:none"
             id="text358"><tspan
               x="0"
               y="0"
               id="tspan356">A</tspan></text>
<text
             transform="translate(743.78125,390)"
             style="font-variant:normal;font-weight:normal;font-size:9.15999985px;font-family:Georgia;-inkscape-font-specification:Georgia;writing-mode:lr-tb;fill:#000000;fill-opacity:1;fill-rule:nonzero;stroke:none"
             id="text362"><tspan
               x="0"
               y="0"
               id="tspan360">5</tspan></text>
</g><g
           id="g364"
           transform="matrix(2.9950142,0,0,2.9950142,1.4975071,1.4975071)"><path
             d="m 740,370 c -6e-5,0.39783 -0.0762,0.78052 -0.22839,1.14804 -0.15229,0.36752 -0.36908,0.69196 -0.65033,0.97327 -0.28138,0.28128 -0.60584,0.49804 -0.97333,0.6503 -0.36749,0.15225 -0.75018,0.22836 -1.14795,0.22839 -0.39789,-3e-5 -0.78058,-0.0761 -1.14807,-0.22839 -0.36762,-0.15226 -0.69202,-0.36902 -0.97333,-0.6503 -0.28131,-0.28131 -0.49811,-0.60575 -0.65033,-0.9733 C 734.07605,370.78049 733.99994,370.39783 734,370 c -6e-5,-0.39786 0.0761,-0.78055 0.22827,-1.14807 0.15222,-0.36755 0.36902,-0.69199 0.65033,-0.97327 0.28131,-0.28131 0.60571,-0.49808 0.97327,-0.6503 C 736.21942,367.07611 736.60211,367 737,367 c 0.39777,0 0.78046,0.0761 1.14795,0.22836 0.36749,0.15222 0.69195,0.36899 0.97333,0.6503 0.28125,0.28128 0.49798,0.60572 0.65027,0.97327 0.15228,0.36752 0.22839,0.75021 0.22845,1.14807 z"
             style="fill:#000000;fill-opacity:1;fill-rule:nonzero;stroke:none"
             id="path366"
             inkscape:connector-curvature="0" /></g><g
           id="g368"
           transform="scale(2.9950142)"><path
             d="M 737,370 V 320"
             style="fill:none;stroke:#000000;stroke-width:1;stroke-linecap:butt;stroke-linejoin:miter;stroke-miterlimit:10;stroke-dasharray:none;stroke-opacity:1"
             id="path370"
             inkscape:connector-curvature="0" /><text
             transform="translate(741.875,336)"
             style="font-style:italic;font-variant:normal;font-size:11px;font-family:Georgia;-inkscape-font-specification:Georgia-Italic;writing-mode:lr-tb;fill:#000000;fill-opacity:1;fill-rule:nonzero;stroke:none"
             id="text374"><tspan
               x="0"
               y="0"
               id="tspan372">k</tspan></text>
<text
             transform="translate(747.67188,339)"
             style="font-style:italic;font-variant:normal;font-size:9.15999985px;font-family:Georgia;-inkscape-font-specification:Georgia-Italic;writing-mode:lr-tb;fill:#000000;fill-opacity:1;fill-rule:nonzero;stroke:none"
             id="text378"><tspan
               x="0"
               y="0"
               id="tspan376">8</tspan></text>
</g><g
           id="g380"
           transform="matrix(2.9950142,0,0,2.9950142,1.4975071,1.4975071)"><path
             d="M 737,370 V 356.37"
             style="fill:none;stroke:#0000ff;stroke-width:1;stroke-linecap:butt;stroke-linejoin:miter;stroke-miterlimit:10;stroke-dasharray:none;stroke-opacity:1"
             id="path382"
             inkscape:connector-curvature="0" /><path
             d="m 737,351.12 2.33002,7 -2.33002,-1.75 -2.33002,1.75 z"
             style="fill:#0000ff;fill-opacity:1;fill-rule:nonzero;stroke:none"
             id="path384"
             inkscape:connector-curvature="0" /><path
             d="m 737,351.12 2.33002,7 -2.33002,-1.75 -2.33002,1.75 z"
             style="fill:none;stroke:#0000ff;stroke-width:1;stroke-linecap:butt;stroke-linejoin:miter;stroke-miterlimit:10;stroke-dasharray:none;stroke-opacity:1"
             id="path386"
             inkscape:connector-curvature="0" /><path
             d="m 737,370 -9.5,9.5"
             style="fill:none;stroke:#ff0000;stroke-width:1;stroke-linecap:butt;stroke-linejoin:miter;stroke-miterlimit:10;stroke-dasharray:none;stroke-opacity:1"
             id="path388"
             inkscape:connector-curvature="0" /><path
             d="m 723.78998,383.20999 3.30005,-6.6 0.40997,2.89001 2.89001,0.41 z"
             style="fill:#ff0000;fill-opacity:1;fill-rule:nonzero;stroke:none"
             id="path390"
             inkscape:connector-curvature="0" /><path
             d="m 723.78998,383.20999 3.30005,-6.6 0.40997,2.89001 2.89001,0.41 z"
             style="fill:none;stroke:#ff0000;stroke-width:1;stroke-linecap:butt;stroke-linejoin:miter;stroke-miterlimit:10;stroke-dasharray:none;stroke-opacity:1"
             id="path392"
             inkscape:connector-curvature="0" /><path
             d="M 641.09998,364.12 C 634.03333,359.70667 630.83331,354.33334 631.5,348 c 0.66669,-6.33334 4.5,-10.33334 11.5,-12"
             style="fill:none;stroke:#a680b8;stroke-width:1;stroke-linecap:butt;stroke-linejoin:miter;stroke-miterlimit:10;stroke-dasharray:none;stroke-opacity:1"
             id="path394"
             inkscape:connector-curvature="0" /><path
             d="m 645.54999,366.91 -7.16999,-1.73001 2.71998,-1.05999 -0.25,-2.9 z"
             style="fill:#a680b8;fill-opacity:1;fill-rule:nonzero;stroke:none"
             id="path396"
             inkscape:connector-curvature="0" /><path
             d="m 645.54999,366.91 -7.16999,-1.73001 2.71998,-1.05999 -0.25,-2.9 z"
             style="fill:none;stroke:#a680b8;stroke-width:1;stroke-linecap:butt;stroke-linejoin:miter;stroke-miterlimit:10;stroke-dasharray:none;stroke-opacity:1"
             id="path398"
             inkscape:connector-curvature="0" /></g><g
           id="g400"
           transform="scale(2.9950142)"><text
             transform="translate(626.40625,342)"
             style="font-style:italic;font-variant:normal;font-size:11px;font-family:Georgia;-inkscape-font-specification:Georgia-Italic;writing-mode:lr-tb;fill:#a680b8;fill-opacity:1;fill-rule:nonzero;stroke:none"
             id="text404"><tspan
               x="0"
               y="0"
               id="tspan402"></tspan></text>
</g><g
           id="g406"
           transform="matrix(2.9950142,0,0,2.9950142,1.4975071,1.4975071)"><path
             d="m 637,420 h 13.63"
             style="fill:none;stroke:#00ff00;stroke-width:1;stroke-linecap:butt;stroke-linejoin:miter;stroke-miterlimit:10;stroke-dasharray:none;stroke-opacity:1"
             id="path408"
             inkscape:connector-curvature="0" /><path
             d="m 655.88,420 -7,2.32999 1.75,-2.32999 -1.75,-2.32999 z"
             style="fill:#00ff00;fill-opacity:1;fill-rule:nonzero;stroke:none"
             id="path410"
             inkscape:connector-curvature="0" /><path
             d="m 655.88,420 -7,2.32999 1.75,-2.32999 -1.75,-2.32999 z"
             style="fill:none;stroke:#00ff00;stroke-width:1;stroke-linecap:butt;stroke-linejoin:miter;stroke-miterlimit:10;stroke-dasharray:none;stroke-opacity:1"
             id="path412"
             inkscape:connector-curvature="0" /><path
             d="M 637,420 V 406.37"
             style="fill:none;stroke:#0000ff;stroke-width:1;stroke-linecap:butt;stroke-linejoin:miter;stroke-miterlimit:10;stroke-dasharray:none;stroke-opacity:1"
             id="path414"
             inkscape:connector-curvature="0" /><path
             d="m 637,401.12 2.33002,7 -2.33002,-1.75 -2.33002,1.75 z"
             style="fill:#0000ff;fill-opacity:1;fill-rule:nonzero;stroke:none"
             id="path416"
             inkscape:connector-curvature="0" /><path
             d="m 637,401.12 2.33002,7 -2.33002,-1.75 -2.33002,1.75 z"
             style="fill:none;stroke:#0000ff;stroke-width:1;stroke-linecap:butt;stroke-linejoin:miter;stroke-miterlimit:10;stroke-dasharray:none;stroke-opacity:1"
             id="path418"
             inkscape:connector-curvature="0" /><path
             d="m 637,420 -9.5,9.5"
             style="fill:none;stroke:#ff0000;stroke-width:1;stroke-linecap:butt;stroke-linejoin:miter;stroke-miterlimit:10;stroke-dasharray:none;stroke-opacity:1"
             id="path420"
             inkscape:connector-curvature="0" /><path
             d="m 623.78998,433.20999 3.30005,-6.6 0.40997,2.89001 2.89001,0.41 z"
             style="fill:#ff0000;fill-opacity:1;fill-rule:nonzero;stroke:none"
             id="path422"
             inkscape:connector-curvature="0" /><path
             d="m 623.78998,433.20999 3.30005,-6.6 0.40997,2.89001 2.89001,0.41 z"
             style="fill:none;stroke:#ff0000;stroke-width:1;stroke-linecap:butt;stroke-linejoin:miter;stroke-miterlimit:10;stroke-dasharray:none;stroke-opacity:1"
             id="path424"
             inkscape:connector-curvature="0" /></g><g
           id="g426"
           transform="scale(2.9950142)"><text
             transform="translate(621.90625,417)"
             style="font-variant:normal;font-weight:normal;font-size:11px;font-family:Georgia;-inkscape-font-specification:Georgia;writing-mode:lr-tb;fill:#000000;fill-opacity:1;fill-rule:nonzero;stroke:none"
             id="text430"><tspan
               x="0"
               y="0"
               id="tspan428">S</tspan></text>
<text
             transform="translate(628.0625,420)"
             style="font-variant:normal;font-weight:normal;font-size:9.15999985px;font-family:Georgia;-inkscape-font-specification:Georgia;writing-mode:lr-tb;fill:#000000;fill-opacity:1;fill-rule:nonzero;stroke:none"
             id="text434"><tspan
               x="0"
               y="0"
               id="tspan432">3</tspan></text>
</g><g
           id="g436"
           transform="matrix(2.9950142,0,0,2.9950142,1.4975071,1.4975071)"><path
             d="m 737,320 13.63,-0.03"
             style="fill:none;stroke:#00ff00;stroke-width:1;stroke-linecap:butt;stroke-linejoin:miter;stroke-miterlimit:10;stroke-dasharray:none;stroke-opacity:1"
             id="path438"
             inkscape:connector-curvature="0" /><path
             d="m 755.88,319.95999 -6.98999,2.35001 1.73999,-2.34 -1.75,-2.32999 z"
             style="fill:#00ff00;fill-opacity:1;fill-rule:nonzero;stroke:none"
             id="path440"
             inkscape:connector-curvature="0" /><path
             d="m 755.88,319.95999 -6.98999,2.35001 1.73999,-2.34 -1.75,-2.32999 z"
             style="fill:none;stroke:#00ff00;stroke-width:1;stroke-linecap:butt;stroke-linejoin:miter;stroke-miterlimit:10;stroke-dasharray:none;stroke-opacity:1"
             id="path442"
             inkscape:connector-curvature="0" /></g><g
           id="g444"
           transform="scale(2.9950142)"><text
             transform="translate(721.01563,316)"
             style="font-variant:normal;font-weight:normal;font-size:11px;font-family:Georgia;-inkscape-font-specification:Georgia;writing-mode:lr-tb;fill:#000000;fill-opacity:1;fill-rule:nonzero;stroke:none"
             id="text448"><tspan
               x="0"
               y="0"
               id="tspan446">S</tspan></text>
<text
             transform="translate(727.17188,319)"
             style="font-variant:normal;font-weight:normal;font-size:9.15999985px;font-family:Georgia;-inkscape-font-specification:Georgia;writing-mode:lr-tb;fill:#000000;fill-opacity:1;fill-rule:nonzero;stroke:none"
             id="text452"><tspan
               x="0"
               y="0"
               id="tspan450">5</tspan></text>
</g><g
           id="g454"
           transform="matrix(2.9950142,0,0,2.9950142,1.4975071,1.4975071)"><path
             d="m 737,320 -0.03,-13.63"
             style="fill:none;stroke:#0000ff;stroke-width:1;stroke-linecap:butt;stroke-linejoin:miter;stroke-miterlimit:10;stroke-dasharray:none;stroke-opacity:1"
             id="path456"
             inkscape:connector-curvature="0" /><path
             d="m 736.96002,301.12 2.34998,6.98999 -2.34003,-1.73999 -2.32996,1.75 z"
             style="fill:#0000ff;fill-opacity:1;fill-rule:nonzero;stroke:none"
             id="path458"
             inkscape:connector-curvature="0" /><path
             d="m 736.96002,301.12 2.34998,6.98999 -2.34003,-1.73999 -2.32996,1.75 z"
             style="fill:none;stroke:#0000ff;stroke-width:1;stroke-linecap:butt;stroke-linejoin:miter;stroke-miterlimit:10;stroke-dasharray:none;stroke-opacity:1"
             id="path460"
             inkscape:connector-curvature="0" /><path
             d="m 737,320 -9.5,9.5"
             style="fill:none;stroke:#ff0000;stroke-width:1;stroke-linecap:butt;stroke-linejoin:miter;stroke-miterlimit:10;stroke-dasharray:none;stroke-opacity:1"
             id="path462"
             inkscape:connector-curvature="0" /><path
             d="m 723.78998,333.20999 3.30005,-6.6 0.40997,2.89001 2.89001,0.41 z"
             style="fill:#ff0000;fill-opacity:1;fill-rule:nonzero;stroke:none"
             id="path464"
             inkscape:connector-curvature="0" /><path
             d="m 723.78998,333.20999 3.30005,-6.6 0.40997,2.89001 2.89001,0.41 z"
             style="fill:none;stroke:#ff0000;stroke-width:1;stroke-linecap:butt;stroke-linejoin:miter;stroke-miterlimit:10;stroke-dasharray:none;stroke-opacity:1"
             id="path466"
             inkscape:connector-curvature="0" /><path
             d="M 674.53003,371.64999 C 674.1767,366.88333 675.33331,363.41666 678,361.25 c 2.66669,-2.16666 5.33331,-3.08334 8,-2.75 2.66669,0.33334 4.66669,1.16666 6,2.5"
             style="fill:none;stroke:#ff8000;stroke-width:1;stroke-linecap:butt;stroke-linejoin:miter;stroke-miterlimit:10;stroke-dasharray:none;stroke-opacity:1"
             id="path468"
             inkscape:connector-curvature="0" /><path
             d="m 674.91998,376.89001 -2.84997,-6.81002 2.46002,1.57 2.19995,-1.91998 z"
             style="fill:#ff8000;fill-opacity:1;fill-rule:nonzero;stroke:none"
             id="path470"
             inkscape:connector-curvature="0" /><path
             d="m 674.91998,376.89001 -2.84997,-6.81002 2.46002,1.57 2.19995,-1.91998 z"
             style="fill:none;stroke:#ff8000;stroke-width:1;stroke-linecap:butt;stroke-linejoin:miter;stroke-miterlimit:10;stroke-dasharray:none;stroke-opacity:1"
             id="path472"
             inkscape:connector-curvature="0" /></g><g
           id="g474"
           transform="scale(2.9950142)"><text
             transform="translate(657.4375,371)"
             style="font-style:italic;font-variant:normal;font-size:11px;font-family:Georgia;-inkscape-font-specification:Georgia-Italic;writing-mode:lr-tb;fill:#ff8000;fill-opacity:1;fill-rule:nonzero;stroke:none"
             id="text478"><tspan
               x="0"
               y="0"
               id="tspan476"></tspan></text>
<text
             transform="translate(663.65625,374)"
             style="font-style:italic;font-variant:normal;font-size:9.15999985px;font-family:Georgia;-inkscape-font-specification:Georgia-Italic;writing-mode:lr-tb;fill:#ff8000;fill-opacity:1;fill-rule:nonzero;stroke:none"
             id="text482"><tspan
               x="0"
               y="0"
               id="tspan480">1</tspan></text>
</g><g
           id="g484"
           transform="matrix(2.9950142,0,0,2.9950142,1.4975071,1.4975071)"><path
             d="m 727,470 h 10 3.63"
             style="fill:none;stroke:#00ff00;stroke-width:1;stroke-linecap:butt;stroke-linejoin:miter;stroke-miterlimit:10;stroke-dasharray:none;stroke-opacity:1"
             id="path486"
             inkscape:connector-curvature="0" /><path
             d="m 745.88,470 -7,2.32999 1.75,-2.32999 -1.75,-2.32999 z"
             style="fill:#00ff00;fill-opacity:1;fill-rule:nonzero;stroke:none"
             id="path488"
             inkscape:connector-curvature="0" /><path
             d="m 745.88,470 -7,2.32999 1.75,-2.32999 -1.75,-2.32999 z"
             style="fill:none;stroke:#00ff00;stroke-width:1;stroke-linecap:butt;stroke-linejoin:miter;stroke-miterlimit:10;stroke-dasharray:none;stroke-opacity:1"
             id="path490"
             inkscape:connector-curvature="0" /></g><g
           id="g492"
           transform="scale(2.9950142)"><text
             transform="translate(749.95313,474)"
             style="font-variant:normal;font-weight:normal;font-size:0px;font-family:Arial;-inkscape-font-specification:Arial;writing-mode:lr-tb;fill:#00ff00;fill-opacity:1;fill-rule:nonzero;stroke:none"
             id="text496"><tspan
               x="0"
               y="0"
               id="tspan494"></tspan></text>
</g><g
           id="g498"
           transform="matrix(2.9950142,0,0,2.9950142,1.4975071,1.4975071)"><path
             d="M 727,470 V 456.37"
             style="fill:none;stroke:#0000ff;stroke-width:1;stroke-linecap:butt;stroke-linejoin:miter;stroke-miterlimit:10;stroke-dasharray:none;stroke-opacity:1"
             id="path500"
             inkscape:connector-curvature="0" /><path
             d="m 727,451.12 2.33002,7 -2.33002,-1.75 -2.33002,1.75 z"
             style="fill:#0000ff;fill-opacity:1;fill-rule:nonzero;stroke:none"
             id="path502"
             inkscape:connector-curvature="0" /><path
             d="m 727,451.12 2.33002,7 -2.33002,-1.75 -2.33002,1.75 z"
             style="fill:none;stroke:#0000ff;stroke-width:1;stroke-linecap:butt;stroke-linejoin:miter;stroke-miterlimit:10;stroke-dasharray:none;stroke-opacity:1"
             id="path504"
             inkscape:connector-curvature="0" /></g><g
           id="g506"
           transform="scale(2.9950142)"><text
             transform="translate(717.39063,458)"
             style="font-variant:normal;font-weight:normal;font-size:0px;font-family:Arial;-inkscape-font-specification:Arial;writing-mode:lr-tb;fill:#0000ff;fill-opacity:1;fill-rule:nonzero;stroke:none"
             id="text510"><tspan
               x="0"
               y="0"
               id="tspan508"></tspan></text>
</g><g
           id="g512"
           transform="matrix(2.9950142,0,0,2.9950142,1.4975071,1.4975071)"><path
             d="m 727,470 -9.5,9.5"
             style="fill:none;stroke:#ff0000;stroke-width:1;stroke-linecap:butt;stroke-linejoin:miter;stroke-miterlimit:10;stroke-dasharray:none;stroke-opacity:1"
             id="path514"
             inkscape:connector-curvature="0" /><path
             d="m 713.78998,483.20999 3.30005,-6.6 0.40997,2.89001 2.89001,0.41 z"
             style="fill:#ff0000;fill-opacity:1;fill-rule:nonzero;stroke:none"
             id="path516"
             inkscape:connector-curvature="0" /><path
             d="m 713.78998,483.20999 3.30005,-6.6 0.40997,2.89001 2.89001,0.41 z"
             style="fill:none;stroke:#ff0000;stroke-width:1;stroke-linecap:butt;stroke-linejoin:miter;stroke-miterlimit:10;stroke-dasharray:none;stroke-opacity:1"
             id="path518"
             inkscape:connector-curvature="0" /></g><g
           id="g520"
           transform="scale(2.9950142)"><text
             transform="translate(704.95313,482)"
             style="font-variant:normal;font-weight:normal;font-size:0px;font-family:Arial;-inkscape-font-specification:Arial;writing-mode:lr-tb;fill:#ff0000;fill-opacity:1;fill-rule:nonzero;stroke:none"
             id="text524"><tspan
               x="0"
               y="0"
               id="tspan522"></tspan></text>
</g><g
           id="g526"
           transform="matrix(2.9950142,0,0,2.9950142,1.4975071,1.4975071)"><path
             d="m 687,370 h 18.63"
             style="fill:none;stroke:#0000ff;stroke-width:1;stroke-linecap:butt;stroke-linejoin:miter;stroke-miterlimit:10;stroke-dasharray:none;stroke-opacity:1"
             id="path528"
             inkscape:connector-curvature="0" /><path
             d="m 710.88,370 -7,2.32999 1.75,-2.32999 -1.75,-2.32999 z"
             style="fill:#0000ff;fill-opacity:1;fill-rule:nonzero;stroke:none"
             id="path530"
             inkscape:connector-curvature="0" /><path
             d="m 710.88,370 -7,2.32999 1.75,-2.32999 -1.75,-2.32999 z"
             style="fill:none;stroke:#0000ff;stroke-width:1;stroke-linecap:butt;stroke-linejoin:miter;stroke-miterlimit:10;stroke-dasharray:none;stroke-opacity:1"
             id="path532"
             inkscape:connector-curvature="0" /><path
             d="m 687,370 5.72998,-15.04999"
             style="fill:none;stroke:#00ff00;stroke-width:1;stroke-linecap:butt;stroke-linejoin:miter;stroke-miterlimit:10;stroke-dasharray:none;stroke-opacity:1"
             id="path534"
             inkscape:connector-curvature="0" /><path
             d="m 694.59998,350.04001 -0.31,7.38 -1.56,-2.47 -2.79999,0.81 z"
             style="fill:#00ff00;fill-opacity:1;fill-rule:nonzero;stroke:none"
             id="path536"
             inkscape:connector-curvature="0" /><path
             d="m 694.59998,350.04001 -0.31,7.38 -1.56,-2.47 -2.79999,0.81 z"
             style="fill:none;stroke:#00ff00;stroke-width:1;stroke-linecap:butt;stroke-linejoin:miter;stroke-miterlimit:10;stroke-dasharray:none;stroke-opacity:1"
             id="path538"
             inkscape:connector-curvature="0" /><path
             d="m 687,370 14.09003,5.63"
             style="fill:none;stroke:#ff0000;stroke-width:1;stroke-linecap:butt;stroke-linejoin:miter;stroke-miterlimit:10;stroke-dasharray:none;stroke-opacity:1"
             id="path540"
             inkscape:connector-curvature="0" /><path
             d="m 705.96002,377.57999 -7.36004,-0.43 2.49005,-1.51999 -0.76001,-2.80999 z"
             style="fill:#ff0000;fill-opacity:1;fill-rule:nonzero;stroke:none"
             id="path542"
             inkscape:connector-curvature="0" /><path
             d="m 705.96002,377.57999 -7.36004,-0.43 2.49005,-1.51999 -0.76001,-2.80999 z"
             style="fill:none;stroke:#ff0000;stroke-width:1;stroke-linecap:butt;stroke-linejoin:miter;stroke-miterlimit:10;stroke-dasharray:none;stroke-opacity:1"
             id="path544"
             inkscape:connector-curvature="0" /></g><g
           id="g546"
           transform="scale(2.9950142)"><text
             transform="translate(685.95313,387)"
             style="font-variant:normal;font-weight:normal;font-size:11px;font-family:Georgia;-inkscape-font-specification:Georgia;writing-mode:lr-tb;fill:#000000;fill-opacity:1;fill-rule:nonzero;stroke:none"
             id="text550"><tspan
               x="0"
               y="0"
               id="tspan548">B</tspan></text>
<text
             transform="translate(693.14063,390)"
             style="font-variant:normal;font-weight:normal;font-size:9.15999985px;font-family:Georgia;-inkscape-font-specification:Georgia;writing-mode:lr-tb;fill:#000000;fill-opacity:1;fill-rule:nonzero;stroke:none"
             id="text554"><tspan
               x="0"
               y="0"
               id="tspan552">1</tspan></text>
</g></g></g></g></svg>